<svg width="1416" height="629" viewBox="0 0 1416 629" fill="none" xmlns="http://www.w3.org/2000/svg">
<mask id="mask0_244_1671" style="mask-type:alpha" maskUnits="userSpaceOnUse" x="-16" y="0" width="1448" height="623">
<path d="M-14.6934 26V596.584C-14.6934 612.721 0.368053 624.631 16.0706 620.911L1411.46 290.287C1422.73 287.615 1430.69 277.547 1430.69 265.96V26C1430.69 12.1929 1419.5 1 1405.69 1H10.3066C-3.50048 1 -14.6934 12.1929 -14.6934 26Z" fill="#D9D9D9" stroke="black"/>
</mask>
<g mask="url(#mask0_244_1671)">
<g opacity="0.5" filter="url(#filter0_f_244_1671)">
<ellipse cx="702.147" cy="-20.9536" rx="860.457" ry="378.16" fill="#FA00FF" fill-opacity="0.1"/>
</g>
<g opacity="0.5" filter="url(#filter1_f_244_1671)">
<ellipse cx="170.593" cy="485.793" rx="180.098" ry="142.407" fill="#00FFA3" fill-opacity="0.5"/>
</g>
<g opacity="0.5" filter="url(#filter2_f_244_1671)">
<ellipse cx="588.789" cy="62.8206" rx="180.098" ry="142.407" fill="#00FFA3" fill-opacity="0.5"/>
</g>
</g>
<path d="M2.7207 623.357L1426.34 190.688V306.332L2.7207 623.357Z" fill="#0047FF" fill-opacity="0.08"/>
<path d="M1416.48 597.845L800.571 382.647L1416.48 214.446V597.845Z" fill="#0047FF" fill-opacity="0.08"/>
<defs>
<filter id="filter0_f_244_1671" x="-602.309" y="-843.113" width="2608.91" height="1644.32" filterUnits="userSpaceOnUse" color-interpolation-filters="sRGB">
<feFlood flood-opacity="0" result="BackgroundImageFix"/>
<feBlend mode="normal" in="SourceGraphic" in2="BackgroundImageFix" result="shape"/>
<feGaussianBlur stdDeviation="222" result="effect1_foregroundBlur_244_1671"/>
</filter>
<filter id="filter1_f_244_1671" x="-453.504" y="-100.614" width="1248.2" height="1172.81" filterUnits="userSpaceOnUse" color-interpolation-filters="sRGB">
<feFlood flood-opacity="0" result="BackgroundImageFix"/>
<feBlend mode="normal" in="SourceGraphic" in2="BackgroundImageFix" result="shape"/>
<feGaussianBlur stdDeviation="222" result="effect1_foregroundBlur_244_1671"/>
</filter>
<filter id="filter2_f_244_1671" x="-35.3091" y="-523.586" width="1248.2" height="1172.81" filterUnits="userSpaceOnUse" color-interpolation-filters="sRGB">
<feFlood flood-opacity="0" result="BackgroundImageFix"/>
<feBlend mode="normal" in="SourceGraphic" in2="BackgroundImageFix" result="shape"/>
<feGaussianBlur stdDeviation="222" result="effect1_foregroundBlur_244_1671"/>
</filter>
</defs>
</svg>
