<svg width="1437" height="711" viewBox="0 0 1437 711" fill="none" xmlns="http://www.w3.org/2000/svg">
<mask id="mask0_248_3290" style="mask-type:alpha" maskUnits="userSpaceOnUse" x="0" y="0" width="1440" height="711">
<path d="M0 0.5H1440V710.643L0 540.143V0.5Z" fill="#D9D9D9"/>
</mask>
<g mask="url(#mask0_248_3290)">
<g opacity="0.3">
<g filter="url(#filter0_f_248_3290)">
<path d="M1896.34 535.744L-321.222 224.438C-332.104 222.815 -343.273 224.113 -353.598 228.198C-363.923 232.282 -373.043 239.011 -380.034 247.704C-387.025 256.396 -391.642 266.746 -393.418 277.709C-395.195 288.672 -394.067 299.858 -390.151 310.142L-148.565 936.043C-140.66 956.533 -127.485 974.483 -110.363 988.073C-93.2407 1001.66 -72.7762 1010.43 -51.0255 1013.48L1395.43 1216.84C1417.2 1219.9 1439.5 1217.12 1460.06 1208.8C1480.63 1200.48 1498.75 1186.9 1512.59 1169.43L1935.37 636.946C1942.27 628.209 1946.79 617.848 1948.49 606.899C1950.19 595.95 1949 584.796 1945.05 574.551C1941.1 564.307 1934.52 555.332 1925.98 548.522C1917.43 541.712 1907.21 537.306 1896.34 535.744Z" fill="url(#paint0_linear_248_3290)"/>
</g>
<path d="M2591.46 413.77L373.893 102.464C363.01 100.842 351.842 102.14 341.517 106.224C331.191 110.308 322.072 117.037 315.081 125.73C308.09 134.423 303.473 144.773 301.696 155.735C299.92 166.698 301.048 177.884 304.964 188.168L546.549 814.063C554.454 834.563 567.63 852.503 584.752 866.103C601.874 879.693 622.338 888.463 644.089 891.513L2090.54 1094.87C2112.32 1097.92 2134.61 1095.15 2155.18 1086.82C2175.74 1078.5 2193.86 1064.92 2207.7 1047.45L2630.49 514.973C2637.38 506.235 2641.91 495.875 2643.6 484.925C2645.3 473.976 2644.12 462.822 2640.17 452.577C2636.22 442.333 2629.64 433.358 2621.09 426.548C2612.54 419.738 2602.33 415.332 2591.46 413.77Z" fill="url(#paint1_linear_248_3290)"/>
<path opacity="0.3" d="M2303.66 293.67L86.0902 -17.6362C75.2081 -19.2592 64.0397 -17.9612 53.7143 -13.8772C43.389 -9.79216 34.2697 -3.06316 27.2784 5.62984C20.2873 14.3218 15.6705 24.6718 13.8939 35.6348C12.1173 46.5978 13.2458 57.7828 17.1616 68.0678L258.747 693.967C266.652 714.459 279.828 732.404 296.95 745.999C314.071 759.593 334.536 768.358 356.287 771.412L1802.74 974.763C1824.51 977.823 1846.81 975.053 1867.38 966.723C1887.94 958.403 1906.06 944.823 1919.9 927.353L2342.68 394.872C2349.58 386.135 2354.1 375.774 2355.8 364.825C2357.5 353.875 2356.32 342.721 2352.37 332.477C2348.42 322.233 2341.84 313.258 2333.29 306.448C2324.74 299.638 2314.52 295.232 2303.66 293.67Z" fill="url(#paint2_linear_248_3290)"/>
<path d="M1854.89 514.561L-361.922 203.853C-372.801 202.233 -383.966 203.534 -394.289 207.62C-404.612 211.706 -413.73 218.436 -420.722 227.129C-427.713 235.821 -432.331 246.17 -434.109 257.131C-435.888 268.093 -434.763 279.276 -430.85 289.557L-189.491 915.273C-181.593 935.763 -168.426 953.703 -151.313 967.293C-134.199 980.873 -113.743 989.633 -91.9999 992.683L1353.96 1195.65C1375.73 1198.7 1398.02 1195.92 1418.58 1187.59C1439.14 1179.26 1457.26 1165.68 1471.1 1148.22L1893.88 615.734C1900.78 606.996 1905.3 596.637 1907 585.689C1908.7 574.741 1907.52 563.59 1903.58 553.348C1899.63 543.107 1893.05 534.136 1884.51 527.329C1875.97 520.522 1865.75 516.119 1854.89 514.561Z" fill="url(#paint3_linear_248_3290)"/>
<g filter="url(#filter1_f_248_3290)">
<path d="M289.19 836.713C472.101 973.503 742.115 921.613 892.283 720.812C1042.45 520.013 846.757 491.132 663.845 354.342C480.934 217.552 380.07 24.6516 229.903 225.452C79.7349 426.251 106.279 699.922 289.19 836.713Z" fill="#FCF773" fill-opacity="0.7"/>
</g>
<g opacity="0.8" filter="url(#filter2_f_248_3290)">
<path d="M-113.667 241.156C-22.9616 442.331 140.173 565.015 250.706 515.179C361.239 465.342 261.063 369.076 170.358 167.901C79.6537 -33.2742 124.508 -64.5972 13.9759 -14.7602C-65.4677 21.0588 -204.372 39.9808 -113.667 241.156Z" fill="#E1FFC2"/>
</g>
</g>
</g>
<defs>
<filter id="filter0_f_248_3290" x="-476.246" y="141.749" width="2507.5" height="1158.31" filterUnits="userSpaceOnUse" color-interpolation-filters="sRGB">
<feFlood flood-opacity="0" result="BackgroundImageFix"/>
<feBlend mode="normal" in="SourceGraphic" in2="BackgroundImageFix" result="shape"/>
<feGaussianBlur stdDeviation="41.005" result="effect1_foregroundBlur_248_3290"/>
</filter>
<filter id="filter1_f_248_3290" x="-75.7603" y="-69.523" width="1229.76" height="1190.96" filterUnits="userSpaceOnUse" color-interpolation-filters="sRGB">
<feFlood flood-opacity="0" result="BackgroundImageFix"/>
<feBlend mode="normal" in="SourceGraphic" in2="BackgroundImageFix" result="shape"/>
<feGaussianBlur stdDeviation="104.167" result="effect1_foregroundBlur_248_3290"/>
</filter>
<filter id="filter2_f_248_3290" x="-294.373" y="-186.675" width="744.733" height="863.993" filterUnits="userSpaceOnUse" color-interpolation-filters="sRGB">
<feFlood flood-opacity="0" result="BackgroundImageFix"/>
<feBlend mode="normal" in="SourceGraphic" in2="BackgroundImageFix" result="shape"/>
<feGaussianBlur stdDeviation="75.5203" result="effect1_foregroundBlur_248_3290"/>
</filter>
<linearGradient id="paint0_linear_248_3290" x1="157.942" y1="657.606" x2="1101.01" y2="719.816" gradientUnits="userSpaceOnUse">
<stop stop-color="#D50606" stop-opacity="0"/>
<stop offset="0.695163" stop-color="#FF7777"/>
<stop offset="1" stop-color="#FF7777"/>
</linearGradient>
<linearGradient id="paint1_linear_248_3290" x1="436" y1="343.142" x2="1795.02" y2="409.206" gradientUnits="userSpaceOnUse">
<stop stop-color="#FF3636" stop-opacity="0"/>
<stop offset="1" stop-color="#FF8F8F"/>
</linearGradient>
<linearGradient id="paint2_linear_248_3290" x1="379.896" y1="252.277" x2="1849.62" y2="76.4528" gradientUnits="userSpaceOnUse">
<stop stop-color="white" stop-opacity="0"/>
<stop offset="1" stop-color="#FF4C4C"/>
</linearGradient>
<linearGradient id="paint3_linear_248_3290" x1="1721" y1="535.642" x2="-162.003" y2="557.335" gradientUnits="userSpaceOnUse">
<stop offset="0.0677083" stop-color="#FA3636"/>
<stop offset="0.458333" stop-color="#FF3636" stop-opacity="0.38"/>
<stop offset="1" stop-color="white" stop-opacity="0"/>
</linearGradient>
</defs>
</svg>
