<svg width="50" height="50" viewBox="0 0 50 50" fill="none" xmlns="http://www.w3.org/2000/svg">
<rect width="50" height="50" rx="25" fill="url(#paint0_linear_303_2)"/>
<path d="M36.8046 35.4995L36.7192 35.4388C36.7473 35.4606 36.7754 35.4808 36.8046 35.4995ZM36.8046 35.4995L36.8655 35.5428L36.8709 35.5381C36.848 35.5261 36.826 35.5132 36.8046 35.4995ZM8.04511 15.9151L8.02344 15.9009V15.9482L8.06136 15.9292L8.04511 15.9151Z" fill="white"/>
<path d="M36.8046 35.4995L36.7192 35.4388C36.7473 35.4606 36.7754 35.4808 36.8046 35.4995ZM36.8046 35.4995L36.8655 35.5428L36.8709 35.5381C36.848 35.5261 36.826 35.5132 36.8046 35.4995ZM8.04511 15.9151L8.02344 15.9009V15.9482L8.06136 15.9292L8.04511 15.9151Z" stroke="white"/>
<path d="M36.7902 12.4442L25.3595 6.7417L13.9235 12.4489V12.4253L13.008 12.8839L12.9429 12.917L8.13232 15.2009L7.70977 15.4137L7.31972 15.617V17.0308L7.30347 33.6702L12.6667 36.3654L13.6689 36.8619L13.9289 36.9895L25.3704 42.6968L37.424 36.6916L37.4565 36.7106L43.2585 33.7836V15.5792L36.7902 12.4442ZM8.02398 15.948V15.9007L8.04565 15.9149L8.0619 15.9291L8.02398 15.948ZM25.3595 8.16969L36.7956 13.8722V17.4232L25.4354 11.7586L17.5044 15.7115V15.9432L14.2269 13.7114L25.3595 8.16969ZM36.7902 18.8465V29.0599L18.9237 16.9078V16.4303L25.4354 13.1818L36.7902 18.8465ZM25.3758 41.2735L13.8368 35.519V26.1236L13.8422 20.6622L17.5098 23.1588V33.6938L25.3758 37.6184L33.1064 33.76L36.2051 35.8689L25.3758 41.2735ZM18.9237 32.9798V24.1187L31.8983 32.9467L25.3758 36.1952L18.9237 32.9798ZM36.8606 35.5474L36.7143 35.4433C36.7685 35.4764 36.8173 35.5095 36.8606 35.5474ZM41.8392 33.0697L37.554 35.2305L18.9237 22.5583L18.214 22.076L17.5044 21.5937L13.8314 19.0971L13.1217 18.6148L12.4175 18.1372V23.6932L12.412 34.8144L8.72282 32.9609L8.73365 16.331L12.4229 14.4727L12.775 14.2977L13.1326 14.5436L13.8422 15.0259L17.5152 17.5225L18.2249 18.0001L18.9346 18.4824L38.2204 31.5991V14.468L41.85 16.2979V33.0697H41.8392Z" fill="white"/>
<path d="M36.7902 12.4442L25.3595 6.7417L13.9235 12.4489V12.4253L13.008 12.8839L12.9429 12.917L8.13232 15.2009L7.70977 15.4137L7.31972 15.617V17.0308L7.30347 33.6702L12.6667 36.3654L13.6689 36.8619L13.9289 36.9895L25.3704 42.6968L37.424 36.6916L37.4565 36.7106L43.2585 33.7836V15.5792L36.7902 12.4442ZM8.02398 15.948V15.9007L8.04565 15.9149L8.0619 15.9291L8.02398 15.948ZM25.3595 8.16969L36.7956 13.8722V17.4232L25.4354 11.7586L17.5044 15.7115V15.9432L14.2269 13.7114L25.3595 8.16969ZM36.7902 18.8465V29.0599L18.9237 16.9078V16.4303L25.4354 13.1818L36.7902 18.8465ZM25.3758 41.2735L13.8368 35.519V26.1236L13.8422 20.6622L17.5098 23.1588V33.6938L25.3758 37.6184L33.1064 33.76L36.2051 35.8689L25.3758 41.2735ZM18.9237 32.9798V24.1187L31.8983 32.9467L25.3758 36.1952L18.9237 32.9798ZM36.8606 35.5474L36.7143 35.4433C36.7685 35.4764 36.8173 35.5095 36.8606 35.5474ZM41.8392 33.0697L37.554 35.2305L18.9237 22.5583L18.214 22.076L17.5044 21.5937L13.8314 19.0971L13.1217 18.6148L12.4175 18.1372V23.6932L12.412 34.8144L8.72282 32.9609L8.73365 16.331L12.4229 14.4727L12.775 14.2977L13.1326 14.5436L13.8422 15.0259L17.5152 17.5225L18.2249 18.0001L18.9346 18.4824L38.2204 31.5991V14.468L41.85 16.2979V33.0697H41.8392Z" stroke="white"/>
<defs>
<linearGradient id="paint0_linear_303_2" x1="25" y1="0" x2="25" y2="50" gradientUnits="userSpaceOnUse">
<stop stop-color="#6C54EA"/>
<stop offset="1" stop-color="#BC1EE4"/>
</linearGradient>
</defs>
</svg>
