<svg width="55" height="39" viewBox="0 0 55 39" fill="none" xmlns="http://www.w3.org/2000/svg">
<path d="M20.5133 0.891884L13.1553 27.6484L10.7026 17.6147C13.8985 17.6147 16.4998 18.5438 18.5066 20.4018C20.5133 22.2599 21.5167 24.8241 21.5167 28.0943C21.5167 31.2903 20.4762 33.8916 18.3951 35.8983C16.3884 37.8307 13.8614 38.7969 10.8141 38.7969C7.6925 38.7969 5.09117 37.8307 3.01011 35.8983C1.00337 33.8916 0 31.2903 0 28.0943C0 27.1281 0.0743235 26.1991 0.222971 25.3072C0.371618 24.341 0.668913 23.2261 1.11485 21.9626C1.5608 20.6991 2.19255 19.0268 3.01011 16.9458L9.47626 0.891884H20.5133Z" fill="white"/>
<path d="M34.1058 37.9051L41.4639 11.1485L43.9166 21.2937C40.7206 21.2937 38.0821 20.3647 36.0011 18.5066C33.9944 16.5742 32.991 13.9728 32.991 10.7026C32.991 7.50669 34.0315 4.94252 36.1126 3.01011C38.1936 1.00337 40.7578 0 43.8051 0C46.9267 0 49.4908 1.00337 51.4976 3.01011C53.5043 4.94252 54.5077 7.50669 54.5077 10.7026C54.5077 11.6688 54.4333 12.635 54.2847 13.6012C54.2104 14.4931 53.9502 15.5708 53.5043 16.8343C53.1327 18.0978 52.5009 19.7701 51.6091 21.8512L45.1429 37.9051H34.1058Z" fill="white"/>
</svg>
