<svg width="1920" height="4624" viewBox="0 0 1920 4624" fill="none" xmlns="http://www.w3.org/2000/svg">
<g clip-path="url(#clip0_502_92)">
<rect width="1920" height="4624" fill="white"/>
<g opacity="0.3">
<path d="M624.667 0V7416.5" stroke="black" stroke-opacity="0.6"/>
<path d="M408.778 0V7416.5" stroke="black" stroke-opacity="0.6"/>
<path d="M192.889 0V7416.5" stroke="black" stroke-opacity="0.6"/>
<path d="M840.556 0V7416.5" stroke="black" stroke-opacity="0.6"/>
<path d="M1488.22 0V7416.5" stroke="black" stroke-opacity="0.6"/>
<path d="M1056.44 0V7416.5" stroke="black" stroke-opacity="0.6"/>
<path d="M1704.11 0V7416.5" stroke="black" stroke-opacity="0.6"/>
<path d="M1272.33 0V7416.5" stroke="black" stroke-opacity="0.6"/>
<path d="M1920 0V7416.5" stroke="black" stroke-opacity="0.6"/>
</g>
<path d="M1169.86 2646.83L1165.54 2658.71H1162.64L1158.31 2646.83H1160.93L1163.44 2654.39L1164.12 2656.73L1164.79 2654.4L1167.31 2646.83H1169.86ZM1172.65 2648.41C1172.14 2648.41 1171.75 2648.3 1171.5 2648.09C1171.25 2647.86 1171.12 2647.53 1171.12 2647.1C1171.12 2646.65 1171.25 2646.32 1171.5 2646.11C1171.75 2645.88 1172.14 2645.76 1172.65 2645.76C1173.17 2645.76 1173.55 2645.88 1173.8 2646.11C1174.06 2646.32 1174.18 2646.65 1174.18 2647.1C1174.18 2647.53 1174.06 2647.86 1173.8 2648.09C1173.55 2648.3 1173.17 2648.41 1172.65 2648.41ZM1173.88 2649.71V2658.71H1171.41V2649.71H1173.88ZM1180.67 2658.89C1179.72 2658.89 1178.89 2658.7 1178.18 2658.33C1177.49 2657.96 1176.95 2657.42 1176.56 2656.73C1176.18 2656.03 1175.99 2655.19 1175.99 2654.21C1175.99 2653.22 1176.18 2652.38 1176.56 2651.69C1176.95 2650.99 1177.48 2650.46 1178.16 2650.08C1178.86 2649.71 1179.65 2649.53 1180.54 2649.53C1181.45 2649.53 1182.23 2649.71 1182.86 2650.08C1183.5 2650.44 1183.98 2650.94 1184.32 2651.58C1184.66 2652.2 1184.82 2652.92 1184.82 2653.72C1184.82 2653.96 1184.82 2654.19 1184.81 2654.4C1184.79 2654.62 1184.78 2654.81 1184.75 2654.98H1177.57V2653.27H1183.67L1182.48 2653.7C1182.48 2652.95 1182.31 2652.36 1181.96 2651.96C1181.63 2651.55 1181.15 2651.34 1180.52 2651.34C1180.07 2651.34 1179.67 2651.45 1179.33 2651.67C1179.01 2651.88 1178.76 2652.21 1178.6 2652.64C1178.43 2653.06 1178.34 2653.59 1178.34 2654.24C1178.34 2654.88 1178.43 2655.41 1178.61 2655.83C1178.81 2656.23 1179.07 2656.54 1179.41 2656.74C1179.75 2656.95 1180.17 2657.05 1180.65 2657.05C1181.18 2657.05 1181.6 2656.95 1181.93 2656.74C1182.25 2656.54 1182.5 2656.26 1182.68 2655.9L1184.64 2656.65C1184.45 2657.12 1184.16 2657.52 1183.76 2657.86C1183.38 2658.2 1182.92 2658.45 1182.38 2658.63C1181.85 2658.8 1181.28 2658.89 1180.67 2658.89ZM1198.28 2649.71H1200.91L1198.03 2658.71H1195.18L1193.22 2652.59L1191.33 2658.71H1188.49L1185.61 2649.71H1188.23L1190.03 2656.6L1192.03 2649.71H1194.48L1196.5 2656.6L1198.28 2649.71ZM1213.04 2646.83C1214.38 2646.83 1215.44 2647.15 1216.21 2647.8C1216.98 2648.45 1217.36 2649.32 1217.36 2650.41C1217.36 2651.57 1216.98 2652.47 1216.21 2653.09C1215.44 2653.7 1214.39 2654.01 1213.06 2654.01L1212.81 2654.15H1210.25V2658.71H1207.8V2646.83H1213.04ZM1212.75 2652.26C1213.45 2652.26 1213.96 2652.12 1214.3 2651.85C1214.65 2651.56 1214.82 2651.12 1214.82 2650.53C1214.82 2649.95 1214.65 2649.51 1214.3 2649.24C1213.96 2648.95 1213.45 2648.81 1212.75 2648.81H1210.25V2652.26H1212.75ZM1214.21 2652.78L1218.06 2658.71H1215.27L1212.09 2653.5L1214.21 2652.78ZM1224.91 2652.96C1224.91 2652.45 1224.76 2652.05 1224.46 2651.76C1224.18 2651.47 1223.79 2651.33 1223.31 2651.33C1222.87 2651.33 1222.48 2651.44 1222.14 2651.67C1221.81 2651.9 1221.56 2652.27 1221.4 2652.8L1219.3 2652.15C1219.5 2651.36 1219.95 2650.73 1220.63 2650.25C1221.33 2649.77 1222.26 2649.53 1223.42 2649.53C1224.21 2649.53 1224.9 2649.65 1225.49 2649.9C1226.08 2650.14 1226.53 2650.51 1226.86 2651C1227.19 2651.49 1227.36 2652.11 1227.36 2652.86V2656.51C1227.36 2656.97 1227.58 2657.19 1228.01 2657.19C1228.21 2657.19 1228.41 2657.16 1228.59 2657.1L1228.44 2658.63C1228.13 2658.79 1227.74 2658.87 1227.27 2658.87C1226.85 2658.87 1226.47 2658.8 1226.14 2658.65C1225.8 2658.51 1225.54 2658.29 1225.35 2658C1225.15 2657.7 1225.06 2657.33 1225.06 2656.89V2656.82L1225.49 2656.74C1225.42 2657.2 1225.22 2657.59 1224.9 2657.91C1224.57 2658.23 1224.18 2658.47 1223.71 2658.63C1223.25 2658.8 1222.78 2658.89 1222.29 2658.89C1221.67 2658.89 1221.15 2658.8 1220.7 2658.62C1220.26 2658.42 1219.92 2658.15 1219.68 2657.79C1219.44 2657.43 1219.32 2656.98 1219.32 2656.46C1219.32 2655.78 1219.53 2655.24 1219.96 2654.82C1220.4 2654.39 1221.01 2654.09 1221.82 2653.94L1225.2 2653.25L1225.18 2654.78L1223.02 2655.21C1222.62 2655.3 1222.3 2655.41 1222.09 2655.56C1221.88 2655.69 1221.78 2655.91 1221.78 2656.22C1221.78 2656.52 1221.89 2656.75 1222.11 2656.91C1222.33 2657.06 1222.6 2657.14 1222.92 2657.14C1223.17 2657.14 1223.41 2657.11 1223.65 2657.05C1223.89 2656.99 1224.11 2656.89 1224.3 2656.76C1224.49 2656.63 1224.64 2656.45 1224.75 2656.22C1224.86 2655.99 1224.91 2655.72 1224.91 2655.39V2652.96ZM1230.12 2658.71V2649.71H1232.33L1232.48 2652.41L1232.17 2652.12C1232.32 2651.53 1232.54 2651.04 1232.86 2650.66C1233.17 2650.28 1233.55 2649.99 1233.99 2649.81C1234.45 2649.62 1234.94 2649.53 1235.48 2649.53C1236.11 2649.53 1236.66 2649.65 1237.14 2649.89C1237.63 2650.13 1238.02 2650.49 1238.29 2650.98C1238.58 2651.46 1238.72 2652.07 1238.72 2652.8V2658.71H1236.26V2653.5C1236.26 2652.74 1236.11 2652.21 1235.81 2651.92C1235.51 2651.62 1235.12 2651.47 1234.64 2651.47C1234.3 2651.47 1233.97 2651.55 1233.65 2651.72C1233.34 2651.88 1233.08 2652.14 1232.87 2652.5C1232.68 2652.86 1232.59 2653.34 1232.59 2653.94V2658.71H1230.12ZM1250.43 2649.71L1246.27 2654.04L1245.78 2654.28L1243.08 2657.18L1243.05 2654.55L1247.62 2649.71H1250.43ZM1243.73 2645.76V2658.71H1241.26V2645.76H1243.73ZM1246.61 2652.57L1250.64 2658.71H1247.85L1244.92 2654.01L1246.61 2652.57ZM1253.33 2648.41C1252.82 2648.41 1252.43 2648.3 1252.18 2648.09C1251.93 2647.86 1251.8 2647.53 1251.8 2647.1C1251.8 2646.65 1251.93 2646.32 1252.18 2646.11C1252.43 2645.88 1252.82 2645.76 1253.33 2645.76C1253.85 2645.76 1254.23 2645.88 1254.49 2646.11C1254.74 2646.32 1254.86 2646.65 1254.86 2647.1C1254.86 2647.53 1254.74 2647.86 1254.49 2648.09C1254.23 2648.3 1253.85 2648.41 1253.33 2648.41ZM1254.56 2649.71V2658.71H1252.09V2649.71H1254.56ZM1257.17 2658.71V2649.71H1259.39L1259.53 2652.41L1259.22 2652.12C1259.37 2651.53 1259.6 2651.04 1259.91 2650.66C1260.22 2650.28 1260.6 2649.99 1261.04 2649.81C1261.5 2649.62 1262 2649.53 1262.54 2649.53C1263.16 2649.53 1263.71 2649.65 1264.19 2649.89C1264.68 2650.13 1265.07 2650.49 1265.34 2650.98C1265.63 2651.46 1265.78 2652.07 1265.78 2652.8V2658.71H1263.31V2653.5C1263.31 2652.74 1263.16 2652.21 1262.86 2651.92C1262.56 2651.62 1262.17 2651.47 1261.69 2651.47C1261.35 2651.47 1261.02 2651.55 1260.7 2651.72C1260.39 2651.88 1260.13 2652.14 1259.93 2652.5C1259.73 2652.86 1259.64 2653.34 1259.64 2653.94V2658.71H1257.17ZM1276.62 2647.56L1276.9 2649.33C1276.86 2649.33 1276.8 2649.33 1276.74 2649.33C1276.69 2649.32 1276.64 2649.31 1276.58 2649.31C1276.03 2649.31 1275.61 2649.44 1275.34 2649.69C1275.06 2649.93 1274.92 2650.26 1274.92 2650.7L1273.92 2650.28C1273.92 2649.8 1274.01 2649.36 1274.2 2648.95C1274.4 2648.53 1274.68 2648.19 1275.05 2647.94C1275.43 2647.69 1275.89 2647.56 1276.42 2647.56C1276.44 2647.56 1276.47 2647.56 1276.51 2647.56C1276.54 2647.56 1276.58 2647.56 1276.62 2647.56ZM1273.66 2657.01C1274.64 2657.01 1275.39 2657.22 1275.91 2657.64C1276.44 2658.06 1276.71 2658.65 1276.71 2659.41C1276.71 2660.09 1276.51 2660.67 1276.11 2661.14C1275.72 2661.62 1275.16 2661.98 1274.44 2662.22C1273.73 2662.46 1272.91 2662.58 1271.97 2662.58C1270.42 2662.58 1269.29 2662.36 1268.57 2661.93C1267.86 2661.5 1267.51 2660.93 1267.51 2660.24C1267.51 2659.74 1267.69 2659.33 1268.07 2658.99C1268.45 2658.66 1269.08 2658.47 1269.96 2658.44L1269.87 2658.72C1269.24 2658.62 1268.76 2658.41 1268.43 2658.11C1268.1 2657.8 1267.94 2657.37 1267.94 2656.83C1267.94 2656.28 1268.15 2655.83 1268.57 2655.48C1269 2655.12 1269.58 2654.91 1270.32 2654.85L1271.4 2655.36H1271.14C1270.63 2655.39 1270.26 2655.5 1270.05 2655.68C1269.84 2655.85 1269.74 2656.04 1269.74 2656.26C1269.74 2656.51 1269.84 2656.7 1270.03 2656.83C1270.23 2656.95 1270.52 2657.01 1270.89 2657.01H1273.66ZM1271.99 2660.88C1272.61 2660.88 1273.12 2660.83 1273.52 2660.72C1273.93 2660.61 1274.23 2660.48 1274.42 2660.31C1274.62 2660.14 1274.73 2659.95 1274.73 2659.75C1274.73 2659.52 1274.64 2659.34 1274.46 2659.19C1274.28 2659.06 1273.95 2658.99 1273.48 2658.99H1270.44C1270.15 2658.99 1269.91 2659.07 1269.72 2659.21C1269.54 2659.35 1269.45 2659.55 1269.45 2659.8C1269.45 2660.14 1269.67 2660.4 1270.12 2660.6C1270.57 2660.79 1271.2 2660.88 1271.99 2660.88ZM1272.01 2649.53C1272.85 2649.53 1273.57 2649.65 1274.19 2649.9C1274.81 2650.14 1275.28 2650.49 1275.61 2650.95C1275.94 2651.4 1276.11 2651.95 1276.11 2652.59C1276.11 2653.21 1275.94 2653.75 1275.61 2654.21C1275.28 2654.66 1274.81 2655.02 1274.19 2655.27C1273.57 2655.51 1272.85 2655.63 1272.01 2655.63C1270.68 2655.63 1269.66 2655.36 1268.95 2654.82C1268.25 2654.27 1267.9 2653.52 1267.9 2652.59C1267.9 2651.95 1268.07 2651.4 1268.39 2650.95C1268.73 2650.49 1269.2 2650.14 1269.81 2649.9C1270.42 2649.65 1271.16 2649.53 1272.01 2649.53ZM1272.01 2651.07C1271.53 2651.07 1271.13 2651.21 1270.82 2651.47C1270.51 2651.73 1270.35 2652.1 1270.35 2652.57C1270.35 2653.04 1270.51 2653.41 1270.82 2653.68C1271.13 2653.95 1271.53 2654.08 1272.01 2654.08C1272.49 2654.08 1272.88 2653.95 1273.18 2653.68C1273.49 2653.41 1273.65 2653.04 1273.65 2652.57C1273.65 2652.1 1273.49 2651.73 1273.18 2651.47C1272.88 2651.21 1272.49 2651.07 1272.01 2651.07Z" fill="white"/>
<rect opacity="0.2" x="1357.15" y="627.565" width="5.18164" height="427.885" transform="rotate(-180 1357.15 627.565)" fill="url(#paint0_linear_502_92)"/>
<rect opacity="0.2" x="899.664" y="810.618" width="5.18164" height="427.885" transform="rotate(90 899.664 810.618)" fill="url(#paint1_linear_502_92)"/>
<rect opacity="0.2" x="45.5688" y="609.256" width="5.18164" height="427.885" transform="rotate(-180 45.5688 609.256)" fill="url(#paint2_linear_502_92)"/>
<circle opacity="0.2" cx="42.978" cy="616.667" r="7.88037" fill="#6C54EA"/>
<rect opacity="0.2" x="923.885" y="1374.29" width="5.18164" height="427.885" transform="rotate(90 923.885 1374.29)" fill="url(#paint3_linear_502_92)"/>
<circle opacity="0.2" cx="931.295" cy="1376.88" r="7.88037" transform="rotate(-90 931.295 1376.88)" fill="#6C54EA"/>
<rect opacity="0.2" x="569.855" y="208.842" width="5.18164" height="427.885" transform="rotate(90 569.855 208.842)" fill="url(#paint4_linear_502_92)"/>
<circle opacity="0.2" cx="576.625" cy="211.433" r="7.88037" transform="rotate(-90 576.625 211.433)" fill="#6C54EA"/>
<rect opacity="0.2" x="531.885" y="1617.29" width="5.18164" height="427.885" transform="rotate(90 531.885 1617.29)" fill="url(#paint5_linear_502_92)"/>
<circle opacity="0.2" cx="538.656" cy="1619.88" r="7.88037" transform="rotate(-90 538.656 1619.88)" fill="#6C54EA"/>
<circle opacity="0.2" cx="1354.56" cy="634.425" r="7.88037" fill="#6C54EA"/>
<circle opacity="0.2" cx="906.841" cy="813.208" r="7.88037" transform="rotate(-90 906.841 813.208)" fill="#6C54EA"/>
<rect opacity="0.2" x="766.29" y="308.237" width="5.18164" height="126.211" fill="url(#paint6_linear_502_92)"/>
<circle opacity="0.2" cx="768.88" cy="301.164" r="7.88037" transform="rotate(180 768.88 301.164)" fill="#6C54EA"/>
<rect opacity="0.2" x="1344.29" y="1626.95" width="5.18164" height="126.211" fill="url(#paint7_linear_502_92)"/>
<circle opacity="0.2" cx="1346.88" cy="1619.88" r="7.88037" transform="rotate(180 1346.88 1619.88)" fill="#6C54EA"/>
<rect opacity="0.2" x="1400.29" y="2820.95" width="5.18164" height="126.211" fill="url(#paint8_linear_502_92)"/>
<circle opacity="0.2" cx="1402.88" cy="2813.88" r="7.88037" transform="rotate(180 1402.88 2813.88)" fill="#6C54EA"/>
<rect opacity="0.2" x="582.056" y="492.039" width="5.18164" height="126.211" transform="rotate(-90 582.056 492.039)" fill="url(#paint9_linear_502_92)"/>
<circle opacity="0.2" cx="574.175" cy="489.329" r="7.88037" transform="rotate(180 574.175 489.329)" fill="#6C54EA"/>
<rect opacity="0.2" x="104.276" y="1291.76" width="5.18164" height="126.211" fill="url(#paint10_linear_502_92)"/>
<circle opacity="0.2" cx="106.986" cy="1283.88" r="7.88037" transform="rotate(-90 106.986 1283.88)" fill="#6C54EA"/>
<rect opacity="0.2" x="60.606" y="2185.39" width="5.18164" height="427.885" transform="rotate(-180 60.606 2185.39)" fill="url(#paint11_linear_502_92)"/>
<circle opacity="0.2" cx="58.0151" cy="2192.8" r="7.88037" fill="#6C54EA"/>
<rect opacity="0.2" x="659.178" y="3356.29" width="5.18164" height="427.885" transform="rotate(90 659.178 3356.29)" fill="url(#paint12_linear_502_92)"/>
<circle opacity="0.2" cx="666.588" cy="3358.88" r="7.88037" transform="rotate(-90 666.588 3358.88)" fill="#6C54EA"/>
<rect opacity="0.2" x="687.682" y="1717.51" width="5.18164" height="126.211" transform="rotate(-90 687.682 1717.51)" fill="url(#paint13_linear_502_92)"/>
<circle opacity="0.2" cx="679.801" cy="1714.8" r="7.88037" transform="rotate(180 679.801 1714.8)" fill="#6C54EA"/>
<rect opacity="0.2" x="364.275" y="2395.66" width="5.18164" height="126.211" fill="url(#paint14_linear_502_92)"/>
<circle opacity="0.2" cx="366.986" cy="2387.77" r="7.88037" transform="rotate(-90 366.986 2387.77)" fill="#6C54EA"/>
<path d="M621.528 3784.6H623.214L626.268 3793H624.714L624.174 3791.51H620.574L620.034 3793H618.48L621.528 3784.6ZM621.108 3790.05H623.634L622.368 3786.59L621.108 3790.05ZM631.161 3784H632.625V3793H631.161V3792.25C630.969 3792.52 630.727 3792.74 630.435 3792.9C630.143 3793.07 629.805 3793.16 629.421 3793.16C628.985 3793.16 628.577 3793.07 628.197 3792.91C627.817 3792.75 627.481 3792.52 627.189 3792.23C626.901 3791.94 626.675 3791.6 626.511 3791.22C626.347 3790.84 626.265 3790.44 626.265 3790C626.265 3789.56 626.347 3789.16 626.511 3788.78C626.675 3788.4 626.901 3788.06 627.189 3787.77C627.481 3787.48 627.817 3787.25 628.197 3787.09C628.577 3786.93 628.985 3786.84 629.421 3786.84C629.805 3786.84 630.143 3786.93 630.435 3787.1C630.727 3787.26 630.969 3787.48 631.161 3787.75V3784ZM629.439 3791.75C629.751 3791.75 630.027 3791.67 630.267 3791.51C630.507 3791.36 630.695 3791.15 630.831 3790.88C630.967 3790.61 631.035 3790.32 631.035 3790C631.035 3789.68 630.967 3789.38 630.831 3789.12C630.695 3788.85 630.505 3788.64 630.261 3788.48C630.021 3788.33 629.747 3788.25 629.439 3788.25C629.131 3788.25 628.849 3788.33 628.593 3788.49C628.341 3788.64 628.139 3788.85 627.987 3789.12C627.839 3789.38 627.765 3789.68 627.765 3790C627.765 3790.32 627.841 3790.62 627.993 3790.88C628.145 3791.15 628.347 3791.36 628.599 3791.51C628.855 3791.67 629.135 3791.75 629.439 3791.75ZM638.268 3784H639.732V3793H638.268V3792.25C638.076 3792.52 637.834 3792.74 637.542 3792.9C637.25 3793.07 636.912 3793.16 636.528 3793.16C636.092 3793.16 635.684 3793.07 635.304 3792.91C634.924 3792.75 634.588 3792.52 634.296 3792.23C634.008 3791.94 633.782 3791.6 633.618 3791.22C633.454 3790.84 633.372 3790.44 633.372 3790C633.372 3789.56 633.454 3789.16 633.618 3788.78C633.782 3788.4 634.008 3788.06 634.296 3787.77C634.588 3787.48 634.924 3787.25 635.304 3787.09C635.684 3786.93 636.092 3786.84 636.528 3786.84C636.912 3786.84 637.25 3786.93 637.542 3787.1C637.834 3787.26 638.076 3787.48 638.268 3787.75V3784ZM636.546 3791.75C636.858 3791.75 637.134 3791.67 637.374 3791.51C637.614 3791.36 637.802 3791.15 637.938 3790.88C638.074 3790.61 638.142 3790.32 638.142 3790C638.142 3789.68 638.074 3789.38 637.938 3789.12C637.802 3788.85 637.612 3788.64 637.368 3788.48C637.128 3788.33 636.854 3788.25 636.546 3788.25C636.238 3788.25 635.956 3788.33 635.7 3788.49C635.448 3788.64 635.246 3788.85 635.094 3789.12C634.946 3789.38 634.872 3789.68 634.872 3790C634.872 3790.32 634.948 3790.62 635.1 3790.88C635.252 3791.15 635.454 3791.36 635.706 3791.51C635.962 3791.67 636.242 3791.75 636.546 3791.75ZM643.576 3793V3784.6H646.636C647.08 3784.6 647.48 3784.69 647.836 3784.88C648.196 3785.06 648.48 3785.32 648.688 3785.66C648.9 3785.99 649.006 3786.39 649.006 3786.85C649.006 3787.05 648.976 3787.26 648.916 3787.47C648.856 3787.68 648.764 3787.86 648.64 3788.03C648.516 3788.2 648.356 3788.32 648.16 3788.4C648.42 3788.46 648.632 3788.58 648.796 3788.75C648.96 3788.91 649.088 3789.11 649.18 3789.34C649.272 3789.56 649.334 3789.79 649.366 3790.03C649.402 3790.26 649.42 3790.48 649.42 3790.68C649.42 3791.12 649.31 3791.52 649.09 3791.87C648.87 3792.21 648.574 3792.49 648.202 3792.69C647.834 3792.9 647.426 3793 646.978 3793H643.576ZM645.04 3791.75H646.828C647.068 3791.75 647.284 3791.69 647.476 3791.57C647.668 3791.46 647.822 3791.3 647.938 3791.09C648.054 3790.89 648.112 3790.66 648.112 3790.4C648.112 3790.17 648.054 3789.96 647.938 3789.76C647.822 3789.56 647.668 3789.4 647.476 3789.27C647.284 3789.15 647.068 3789.09 646.828 3789.09H645.04V3791.75ZM645.04 3787.85H646.468C646.764 3787.85 647.016 3787.76 647.224 3787.58C647.436 3787.39 647.542 3787.15 647.542 3786.84C647.542 3786.52 647.436 3786.28 647.224 3786.11C647.016 3785.94 646.764 3785.86 646.468 3785.86H645.04V3787.85ZM654.587 3787H656.051V3793H654.587L654.521 3792.26C654.357 3792.52 654.139 3792.74 653.867 3792.91C653.599 3793.07 653.281 3793.16 652.913 3793.16C652.469 3793.16 652.053 3793.07 651.665 3792.9C651.277 3792.74 650.935 3792.5 650.639 3792.21C650.347 3791.91 650.117 3791.57 649.949 3791.18C649.785 3790.79 649.703 3790.38 649.703 3789.93C649.703 3789.51 649.781 3789.1 649.937 3788.73C650.097 3788.35 650.319 3788.02 650.603 3787.74C650.887 3787.45 651.215 3787.23 651.587 3787.07C651.959 3786.91 652.359 3786.83 652.787 3786.83C653.183 3786.83 653.537 3786.92 653.849 3787.1C654.165 3787.27 654.433 3787.5 654.653 3787.77L654.587 3787ZM652.877 3791.75C653.189 3791.75 653.465 3791.67 653.705 3791.51C653.945 3791.36 654.133 3791.15 654.269 3790.88C654.405 3790.61 654.473 3790.32 654.473 3790C654.473 3789.68 654.405 3789.38 654.269 3789.12C654.133 3788.85 653.943 3788.64 653.699 3788.48C653.459 3788.33 653.185 3788.25 652.877 3788.25C652.569 3788.25 652.287 3788.33 652.031 3788.49C651.779 3788.64 651.577 3788.85 651.425 3789.12C651.277 3789.38 651.203 3789.68 651.203 3790C651.203 3790.32 651.279 3790.62 651.431 3790.88C651.583 3791.15 651.785 3791.36 652.037 3791.51C652.293 3791.67 652.573 3791.75 652.877 3791.75ZM657.042 3793V3784H658.506V3793H657.042ZM664.138 3787H665.602V3793H664.138L664.072 3792.26C663.908 3792.52 663.69 3792.74 663.418 3792.91C663.15 3793.07 662.832 3793.16 662.464 3793.16C662.02 3793.16 661.604 3793.07 661.216 3792.9C660.828 3792.74 660.486 3792.5 660.19 3792.21C659.898 3791.91 659.668 3791.57 659.5 3791.18C659.336 3790.79 659.254 3790.38 659.254 3789.93C659.254 3789.51 659.332 3789.1 659.488 3788.73C659.648 3788.35 659.87 3788.02 660.154 3787.74C660.438 3787.45 660.766 3787.23 661.138 3787.07C661.51 3786.91 661.91 3786.83 662.338 3786.83C662.734 3786.83 663.088 3786.92 663.4 3787.1C663.716 3787.27 663.984 3787.5 664.204 3787.77L664.138 3787ZM662.428 3791.75C662.74 3791.75 663.016 3791.67 663.256 3791.51C663.496 3791.36 663.684 3791.15 663.82 3790.88C663.956 3790.61 664.024 3790.32 664.024 3790C664.024 3789.68 663.956 3789.38 663.82 3789.12C663.684 3788.85 663.494 3788.64 663.25 3788.48C663.01 3788.33 662.736 3788.25 662.428 3788.25C662.12 3788.25 661.838 3788.33 661.582 3788.49C661.33 3788.64 661.128 3788.85 660.976 3789.12C660.828 3789.38 660.754 3789.68 660.754 3790C660.754 3790.32 660.83 3790.62 660.982 3790.88C661.134 3791.15 661.336 3791.36 661.588 3791.51C661.844 3791.67 662.124 3791.75 662.428 3791.75ZM672.054 3789.21V3793H670.59V3789.59C670.59 3789.36 670.532 3789.14 670.416 3788.95C670.3 3788.75 670.144 3788.6 669.948 3788.49C669.756 3788.37 669.542 3788.31 669.306 3788.31C669.07 3788.31 668.854 3788.37 668.658 3788.49C668.466 3788.6 668.312 3788.75 668.196 3788.95C668.084 3789.14 668.028 3789.36 668.028 3789.59V3793H666.564L666.558 3787H668.022L668.028 3787.53C668.232 3787.32 668.476 3787.15 668.76 3787.02C669.044 3786.9 669.35 3786.83 669.678 3786.83C670.114 3786.83 670.512 3786.94 670.872 3787.16C671.232 3787.37 671.518 3787.65 671.73 3788.01C671.946 3788.37 672.054 3788.77 672.054 3789.21ZM676.612 3791.19L677.932 3791.91C677.656 3792.28 677.31 3792.59 676.894 3792.81C676.478 3793.04 676.024 3793.16 675.532 3793.16C674.98 3793.16 674.476 3793.01 674.02 3792.73C673.568 3792.45 673.206 3792.07 672.934 3791.59C672.666 3791.11 672.532 3790.58 672.532 3790C672.532 3789.56 672.61 3789.15 672.766 3788.77C672.922 3788.39 673.136 3788.05 673.408 3787.76C673.684 3787.47 674.004 3787.24 674.368 3787.08C674.732 3786.91 675.12 3786.83 675.532 3786.83C676.024 3786.83 676.478 3786.95 676.894 3787.17C677.31 3787.4 677.656 3787.71 677.932 3788.09L676.612 3788.8C676.472 3788.64 676.306 3788.52 676.114 3788.43C675.926 3788.34 675.732 3788.3 675.532 3788.3C675.244 3788.3 674.984 3788.38 674.752 3788.54C674.52 3788.69 674.336 3788.9 674.2 3789.16C674.064 3789.42 673.996 3789.7 673.996 3790C673.996 3790.3 674.064 3790.58 674.2 3790.84C674.336 3791.1 674.52 3791.3 674.752 3791.46C674.984 3791.61 675.244 3791.69 675.532 3791.69C675.74 3791.69 675.938 3791.65 676.126 3791.56C676.314 3791.47 676.476 3791.35 676.612 3791.19ZM681.222 3793.16C680.67 3793.16 680.166 3793.01 679.71 3792.73C679.258 3792.45 678.896 3792.06 678.624 3791.58C678.356 3791.1 678.222 3790.57 678.222 3789.99C678.222 3789.56 678.3 3789.15 678.456 3788.77C678.612 3788.39 678.826 3788.05 679.098 3787.76C679.374 3787.47 679.694 3787.24 680.058 3787.08C680.422 3786.91 680.81 3786.83 681.222 3786.83C681.69 3786.83 682.118 3786.93 682.506 3787.13C682.898 3787.33 683.23 3787.6 683.502 3787.94C683.774 3788.29 683.972 3788.68 684.096 3789.12C684.22 3789.56 684.248 3790.02 684.18 3790.5H679.794C679.85 3790.72 679.942 3790.92 680.07 3791.1C680.198 3791.28 680.36 3791.42 680.556 3791.53C680.752 3791.63 680.974 3791.69 681.222 3791.69C681.478 3791.7 681.71 3791.64 681.918 3791.51C682.13 3791.38 682.306 3791.21 682.446 3791L683.94 3791.34C683.696 3791.88 683.332 3792.31 682.848 3792.65C682.364 3792.99 681.822 3793.16 681.222 3793.16ZM679.746 3789.4H682.698C682.654 3789.16 682.56 3788.94 682.416 3788.75C682.276 3788.56 682.102 3788.4 681.894 3788.28C681.686 3788.17 681.462 3788.11 681.222 3788.11C680.982 3788.11 680.76 3788.17 680.556 3788.28C680.352 3788.4 680.178 3788.55 680.034 3788.75C679.894 3788.94 679.798 3789.16 679.746 3789.4Z" fill="white"/>
<rect x="608" y="3526" width="42" height="13" rx="3" fill="white"/>
</g>
<defs>
<linearGradient id="paint0_linear_502_92" x1="1359.74" y1="627.565" x2="1359.74" y2="1055.45" gradientUnits="userSpaceOnUse">
<stop stop-color="#6C54EA"/>
<stop offset="1" stop-color="#6C54EA" stop-opacity="0"/>
</linearGradient>
<linearGradient id="paint1_linear_502_92" x1="902.255" y1="810.618" x2="902.255" y2="1238.5" gradientUnits="userSpaceOnUse">
<stop stop-color="#6C54EA"/>
<stop offset="1" stop-color="#6C54EA" stop-opacity="0"/>
</linearGradient>
<linearGradient id="paint2_linear_502_92" x1="48.1597" y1="609.256" x2="48.1597" y2="1037.14" gradientUnits="userSpaceOnUse">
<stop stop-color="#6C54EA"/>
<stop offset="1" stop-color="#6C54EA" stop-opacity="0"/>
</linearGradient>
<linearGradient id="paint3_linear_502_92" x1="926.476" y1="1374.29" x2="926.476" y2="1802.17" gradientUnits="userSpaceOnUse">
<stop stop-color="#6C54EA"/>
<stop offset="1" stop-color="#6C54EA" stop-opacity="0"/>
</linearGradient>
<linearGradient id="paint4_linear_502_92" x1="572.446" y1="208.842" x2="572.446" y2="636.728" gradientUnits="userSpaceOnUse">
<stop stop-color="#6C54EA"/>
<stop offset="1" stop-color="#6C54EA" stop-opacity="0"/>
</linearGradient>
<linearGradient id="paint5_linear_502_92" x1="534.476" y1="1617.29" x2="534.476" y2="2045.18" gradientUnits="userSpaceOnUse">
<stop stop-color="#6C54EA"/>
<stop offset="1" stop-color="#6C54EA" stop-opacity="0"/>
</linearGradient>
<linearGradient id="paint6_linear_502_92" x1="768.881" y1="308.237" x2="768.881" y2="434.448" gradientUnits="userSpaceOnUse">
<stop stop-color="#6C54EA"/>
<stop offset="1" stop-color="#6C54EA" stop-opacity="0"/>
</linearGradient>
<linearGradient id="paint7_linear_502_92" x1="1346.88" y1="1626.95" x2="1346.88" y2="1753.16" gradientUnits="userSpaceOnUse">
<stop stop-color="#6C54EA"/>
<stop offset="1" stop-color="#6C54EA" stop-opacity="0"/>
</linearGradient>
<linearGradient id="paint8_linear_502_92" x1="1402.88" y1="2820.95" x2="1402.88" y2="2947.16" gradientUnits="userSpaceOnUse">
<stop stop-color="#6C54EA"/>
<stop offset="1" stop-color="#6C54EA" stop-opacity="0"/>
</linearGradient>
<linearGradient id="paint9_linear_502_92" x1="584.646" y1="492.039" x2="584.646" y2="618.25" gradientUnits="userSpaceOnUse">
<stop stop-color="#6C54EA"/>
<stop offset="1" stop-color="#6C54EA" stop-opacity="0"/>
</linearGradient>
<linearGradient id="paint10_linear_502_92" x1="106.866" y1="1291.76" x2="106.866" y2="1417.97" gradientUnits="userSpaceOnUse">
<stop stop-color="#6C54EA"/>
<stop offset="1" stop-color="#6C54EA" stop-opacity="0"/>
</linearGradient>
<linearGradient id="paint11_linear_502_92" x1="63.1968" y1="2185.39" x2="63.1968" y2="2613.28" gradientUnits="userSpaceOnUse">
<stop stop-color="#6C54EA"/>
<stop offset="1" stop-color="#6C54EA" stop-opacity="0"/>
</linearGradient>
<linearGradient id="paint12_linear_502_92" x1="661.769" y1="3356.29" x2="661.769" y2="3784.17" gradientUnits="userSpaceOnUse">
<stop stop-color="#6C54EA"/>
<stop offset="1" stop-color="#6C54EA" stop-opacity="0"/>
</linearGradient>
<linearGradient id="paint13_linear_502_92" x1="690.272" y1="1717.51" x2="690.272" y2="1843.73" gradientUnits="userSpaceOnUse">
<stop stop-color="#6C54EA"/>
<stop offset="1" stop-color="#6C54EA" stop-opacity="0"/>
</linearGradient>
<linearGradient id="paint14_linear_502_92" x1="366.866" y1="2395.66" x2="366.866" y2="2521.87" gradientUnits="userSpaceOnUse">
<stop stop-color="#6C54EA"/>
<stop offset="1" stop-color="#6C54EA" stop-opacity="0"/>
</linearGradient>
<clipPath id="clip0_502_92">
<rect width="1920" height="4624" fill="white"/>
</clipPath>
</defs>
</svg>
