<svg width="183" height="173" viewBox="0 0 183 173" fill="none" xmlns="http://www.w3.org/2000/svg">
<g opacity="0.6">
<mask id="mask0_2_282" style="mask-type:alpha" maskUnits="userSpaceOnUse" x="0" y="0" width="183" height="173">
<path fill-rule="evenodd" clip-rule="evenodd" d="M91.0639 86.7527L91.0476 86.7327L181.411 72.374L124.627 0.890137L33.9561 14.9049L34.5577 15.6622L0.753906 100.506L56.9124 171.919L56.9222 171.894L147.502 158.508L181.447 72.3831L91.0658 86.7472L91.0639 86.7527Z" fill="white"/>
<path d="M91.05 86.7326L90.7676 86.9568L90.3827 86.4729L90.9937 86.3757L91.05 86.7326ZM91.0663 86.7525L91.4013 86.8869L91.1698 87.4643L90.7831 86.9768L91.0663 86.7525ZM181.414 72.3739L181.696 72.1487L182.081 72.6335L181.47 72.7307L181.414 72.3739ZM124.629 0.890019L124.575 0.533027L124.782 0.500977L124.912 0.665312L124.629 0.890019ZM33.9585 14.9048L33.6757 15.1295L33.2891 14.6428L33.9033 14.5479L33.9585 14.9048ZM34.5601 15.6621L34.8429 15.4374L34.9731 15.6013L34.8956 15.7958L34.5601 15.6621ZM0.756307 100.506L0.472402 100.729L0.34375 100.566L0.420742 100.372L0.756307 100.506ZM56.9148 171.919L57.25 172.053L57.0173 172.633L56.6309 172.141L56.9148 171.919ZM56.9246 171.894L56.5894 171.759L56.6666 171.566L56.8718 171.536L56.9246 171.894ZM147.504 158.508L147.84 158.64L147.764 158.835L147.557 158.865L147.504 158.508ZM181.449 72.383L181.392 72.0262L182.018 71.9272L181.785 72.5155L181.449 72.383ZM91.0682 86.7471L90.7331 86.6127L90.8094 86.4221L91.0119 86.3903L91.0682 86.7471ZM91.3333 86.5074L91.3487 86.5274L90.7831 86.9768L90.7676 86.9568L91.3333 86.5074ZM181.47 72.7307L91.1072 87.0894L90.9937 86.3757L181.358 72.0171L181.47 72.7307ZM124.912 0.665312L181.696 72.1487L181.131 72.5981L124.347 1.11464L124.912 0.665312ZM33.9033 14.5479L124.575 0.533027L124.685 1.24692L34.0137 15.2618L33.9033 14.5479ZM34.2773 15.8868L33.6757 15.1295L34.2413 14.6802L34.8429 15.4374L34.2773 15.8868ZM0.420742 100.372L34.2245 15.5284L34.8956 15.7958L1.09187 100.64L0.420742 100.372ZM56.6309 172.141L0.472402 100.729L1.04021 100.283L57.1987 171.695L56.6309 172.141ZM57.2598 172.028L57.25 172.053L56.5796 171.783L56.5894 171.759L57.2598 172.028ZM56.8718 171.536L147.451 158.15L147.557 158.865L56.9774 172.251L56.8718 171.536ZM147.168 158.375L181.113 72.2504L181.785 72.5155L147.84 158.64L147.168 158.375ZM181.506 72.7398L91.1254 87.1039L91.0119 86.3903L181.392 72.0262L181.506 72.7398ZM91.4041 86.8815L91.4013 86.8869L90.7313 86.6182L90.7331 86.6127L91.4041 86.8815Z" fill="white"/>
</mask>
<g mask="url(#mask0_2_282)">
<g filter="url(#filter0_f_2_282)">
<path d="M93.5055 167.037C58.2046 161.905 33.5161 130.723 38.3622 97.3898C43.2083 64.0569 75.7539 41.1957 111.055 46.3279C146.356 51.4601 171.044 82.6423 166.198 115.975C161.352 149.308 128.806 172.169 93.5055 167.037Z" fill="#751EE4"/>
</g>
<g filter="url(#filter1_f_2_282)">
<path d="M52.2086 236.306C12.6374 230.553 -15.0384 195.604 -9.60706 158.246C-4.17569 120.887 32.3061 95.2657 71.8773 101.019C111.449 106.772 139.124 141.721 133.693 179.079C128.262 216.438 91.7798 242.059 52.2086 236.306Z" fill="#6CB0FF"/>
</g>
<g filter="url(#filter2_f_2_282)">
<path d="M99.4131 30.5875C95.9213 54.6052 101.835 70.8782 144.94 93.7504C167.233 100.896 187.965 67.9874 191.457 43.9692C194.948 19.9514 177.174 -2.51442 151.757 -6.20963C126.34 -9.90494 102.905 6.56973 99.4131 30.5875Z" fill="white" fill-opacity="0.9"/>
</g>
<g filter="url(#filter3_f_2_282)">
<path d="M103.946 118.691C88.4515 116.438 77.618 102.733 79.7483 88.08C81.8787 73.4269 96.1661 63.3743 111.66 65.6269C127.154 67.8795 137.988 81.5843 135.858 96.2374C133.727 110.891 119.44 120.943 103.946 118.691Z" fill="#36BEFF"/>
</g>
</g>
<path d="M124.547 0.919434L33.875 14.9343L90.9365 86.7665L181.33 72.4033L124.547 0.919434Z" fill="url(#paint0_linear_2_282)" stroke="white" stroke-width="1.06091"/>
<path d="M147.42 158.537L56.8202 171.926L90.9839 86.7762L181.365 72.4121L147.42 158.537Z" stroke="white" stroke-width="1.06091"/>
<path d="M0.671875 100.535L34.4871 15.6626L90.9945 86.7975L56.8304 171.947L0.671875 100.535Z" stroke="white" stroke-width="1.06091"/>
</g>
<defs>
<filter id="filter0_f_2_282" x="-154.087" y="-146.234" width="512.735" height="505.834" filterUnits="userSpaceOnUse" color-interpolation-filters="sRGB">
<feFlood flood-opacity="0" result="BackgroundImageFix"/>
<feBlend mode="normal" in="SourceGraphic" in2="BackgroundImageFix" result="shape"/>
<feGaussianBlur stdDeviation="95.9212" result="effect1_foregroundBlur_2_282"/>
</filter>
<filter id="filter1_f_2_282" x="-69.6453" y="40.8541" width="263.376" height="255.617" filterUnits="userSpaceOnUse" color-interpolation-filters="sRGB">
<feFlood flood-opacity="0" result="BackgroundImageFix"/>
<feBlend mode="normal" in="SourceGraphic" in2="BackgroundImageFix" result="shape"/>
<feGaussianBlur stdDeviation="29.6789" result="effect1_foregroundBlur_2_282"/>
</filter>
<filter id="filter2_f_2_282" x="26.6215" y="-78.6763" width="237.222" height="245.369" filterUnits="userSpaceOnUse" color-interpolation-filters="sRGB">
<feFlood flood-opacity="0" result="BackgroundImageFix"/>
<feBlend mode="normal" in="SourceGraphic" in2="BackgroundImageFix" result="shape"/>
<feGaussianBlur stdDeviation="35.9744" result="effect1_foregroundBlur_2_282"/>
</filter>
<filter id="filter3_f_2_282" x="17.0734" y="2.90392" width="181.459" height="178.51" filterUnits="userSpaceOnUse" color-interpolation-filters="sRGB">
<feFlood flood-opacity="0" result="BackgroundImageFix"/>
<feBlend mode="normal" in="SourceGraphic" in2="BackgroundImageFix" result="shape"/>
<feGaussianBlur stdDeviation="31.2038" result="effect1_foregroundBlur_2_282"/>
</filter>
<linearGradient id="paint0_linear_2_282" x1="94.273" y1="93.9917" x2="125.751" y2="-14.8491" gradientUnits="userSpaceOnUse">
<stop stop-color="#CEDCF7" stop-opacity="0.71"/>
<stop offset="1" stop-color="white" stop-opacity="0"/>
</linearGradient>
</defs>
</svg>
