<svg width="57" height="114" viewBox="0 0 57 114" fill="none" xmlns="http://www.w3.org/2000/svg">
<path d="M57 4.9831e-06C41.8826 6.3047e-06 27.3845 6.00535 16.6949 16.6949C6.00533 27.3845 -6.3047e-06 41.8827 -4.9831e-06 57C-3.6615e-06 72.1173 6.00533 86.6155 16.6949 97.3051C27.3845 107.995 41.8827 114 57 114L57 107.966C43.4829 107.966 30.5194 102.597 20.9614 93.0386C11.4033 83.4806 6.03369 70.5171 6.03369 57C6.03369 43.4829 11.4033 30.5194 20.9614 20.9614C30.5194 11.4034 43.4829 6.0337 57 6.0337L57 4.9831e-06Z" fill="url(#paint0_linear_107_6334)"/>
<defs>
<linearGradient id="paint0_linear_107_6334" x1="81" y1="114" x2="57" y2="21" gradientUnits="userSpaceOnUse">
<stop stop-color="#6C54EA"/>
<stop offset="1" stop-color="#6C54EA" stop-opacity="0"/>
</linearGradient>
</defs>
</svg>
