<svg width="17" height="17" viewBox="0 0 17 17" fill="none" xmlns="http://www.w3.org/2000/svg">
<path d="M1.96354 1.78068V5.11401H5.29687V1.78068H1.96354ZM1.96354 0.114014H5.29687C5.7389 0.114014 6.16283 0.289608 6.47539 0.602169C6.78795 0.91473 6.96354 1.33865 6.96354 1.78068V5.11401C6.96354 5.55604 6.78795 5.97996 6.47539 6.29252C6.16283 6.60509 5.7389 6.78068 5.29687 6.78068H1.96354C1.52151 6.78068 1.09759 6.60509 0.78503 6.29252C0.47247 5.97996 0.296875 5.55604 0.296875 5.11401V1.78068C0.296875 1.33865 0.47247 0.91473 0.78503 0.602169C1.09759 0.289608 1.52151 0.114014 1.96354 0.114014ZM11.9635 0.114014H15.2969C15.7389 0.114014 16.1628 0.289608 16.4754 0.602169C16.7879 0.91473 16.9635 1.33865 16.9635 1.78068V5.11401C16.9635 5.55604 16.7879 5.97996 16.4754 6.29252C16.1628 6.60509 15.7389 6.78068 15.2969 6.78068H11.9635C11.5215 6.78068 11.0976 6.60509 10.785 6.29252C10.4725 5.97996 10.2969 5.55604 10.2969 5.11401V1.78068C10.2969 1.33865 10.4725 0.91473 10.785 0.602169C11.0976 0.289608 11.5215 0.114014 11.9635 0.114014ZM11.9635 1.78068V5.11401H15.2969V1.78068H11.9635ZM11.9635 10.114H15.2969C15.7389 10.114 16.1628 10.2896 16.4754 10.6022C16.7879 10.9147 16.9635 11.3387 16.9635 11.7807V15.114C16.9635 15.556 16.7879 15.98 16.4754 16.2925C16.1628 16.6051 15.7389 16.7807 15.2969 16.7807H11.9635C11.5215 16.7807 11.0976 16.6051 10.785 16.2925C10.4725 15.98 10.2969 15.556 10.2969 15.114V11.7807C10.2969 11.3387 10.4725 10.9147 10.785 10.6022C11.0976 10.2896 11.5215 10.114 11.9635 10.114ZM11.9635 11.7807V15.114H15.2969V11.7807H11.9635ZM1.96354 10.114H5.29687C5.7389 10.114 6.16283 10.2896 6.47539 10.6022C6.78795 10.9147 6.96354 11.3387 6.96354 11.7807V15.114C6.96354 15.556 6.78795 15.98 6.47539 16.2925C6.16283 16.6051 5.7389 16.7807 5.29687 16.7807H1.96354C1.52151 16.7807 1.09759 16.6051 0.78503 16.2925C0.47247 15.98 0.296875 15.556 0.296875 15.114V11.7807C0.296875 11.3387 0.47247 10.9147 0.78503 10.6022C1.09759 10.2896 1.52151 10.114 1.96354 10.114ZM1.96354 11.7807V15.114H5.29687V11.7807H1.96354Z" fill="#751EE4"/>
</svg>
