<svg width="21" height="21" viewBox="0 0 21 21" fill="none" xmlns="http://www.w3.org/2000/svg">
<path fill-rule="evenodd" clip-rule="evenodd" d="M14.144 2.36568C14.1442 2.3659 14.1444 2.36611 14.1446 2.36633L18.5915 6.79359C20.6969 8.91032 20.6989 12.3314 18.5901 14.4402L14.2915 18.7388L14.2901 18.7402C12.1733 20.8456 8.75231 20.8476 6.64347 18.7388L2.20779 14.3031C1.13169 13.227 0.554677 11.744 0.622569 10.2164L0.62269 10.2138L0.857692 5.31793L0.857773 5.31628C0.974623 2.99098 2.8333 1.13171 5.17025 1.02597C5.17063 1.02595 5.171 1.02594 5.17138 1.02592L10.062 0.791174C10.0625 0.791146 10.0631 0.791118 10.0636 0.79109C11.5854 0.712057 13.069 1.2911 14.144 2.36568ZM13.106 3.4049C12.321 2.61984 11.2401 2.2004 10.1386 2.25794L10.1355 2.2581L5.23961 2.4931L5.23741 2.4932C3.65844 2.56425 2.40406 3.81815 2.32473 5.38923C2.32471 5.38949 2.3247 5.38974 2.32469 5.39L2.08989 10.2816C2.08987 10.282 2.08985 10.2824 2.08983 10.2828C2.04059 11.3986 2.46231 12.4805 3.24636 13.2645L7.68204 17.7002C9.21555 19.2337 11.7083 19.2359 13.2537 17.6994C13.2539 17.6992 13.2541 17.699 13.2543 17.6988L17.5515 13.4016C19.0848 11.8683 19.0872 9.37594 17.5513 7.83055C17.5509 7.83016 17.5505 7.82978 17.5501 7.8294L13.1072 3.40605L13.106 3.4049Z" fill="#751EE4"/>
<path fill-rule="evenodd" clip-rule="evenodd" d="M4.76562 8.10469C4.76562 6.34714 6.1904 4.92236 7.94795 4.92236C9.70549 4.92236 11.1303 6.34714 11.1303 8.10469C11.1303 9.86223 9.70549 11.287 7.94795 11.287C6.1904 11.287 4.76562 9.86223 4.76562 8.10469ZM7.94795 6.39113C7.00158 6.39113 6.23439 7.15832 6.23439 8.10469C6.23439 9.05106 7.00158 9.81825 7.94795 9.81825C8.89431 9.81825 9.66151 9.05105 9.66151 8.10469C9.66151 7.15832 8.89432 6.39113 7.94795 6.39113Z" fill="#751EE4"/>
</svg>
