<svg width="21" height="21" viewBox="0 0 21 21" fill="none" xmlns="http://www.w3.org/2000/svg">
<path fill-rule="evenodd" clip-rule="evenodd" d="M1.6878 4.81177C1.89581 3.94863 2.23815 3.31185 2.7042 2.8458C3.37242 2.17758 4.39163 1.76368 5.92578 1.63541V4.81177H1.6878ZM7.26345 4.81177V1.59255H12.1328V4.81177H7.26345ZM13.4705 4.81177H17.712C17.504 3.94863 17.1617 3.31185 16.6956 2.8458C16.0269 2.17706 15.0066 1.76303 13.4705 1.63511V4.81177ZM1.48725 6.14944C1.46314 6.46631 1.45095 6.80476 1.45095 7.16618V12.5169C1.45095 14.6804 1.88775 16.0208 2.7042 16.8372C3.52065 17.6537 4.8611 18.0905 7.02458 18.0905H11.5033C11.0645 17.3788 10.8125 16.539 10.8125 15.638C10.8125 14.1644 11.4878 12.8407 12.5716 11.9848C13.3726 11.3408 14.3925 10.9562 15.4943 10.9562C15.55 10.9562 15.6055 10.9571 15.6607 10.959C16.4994 10.9877 17.2806 11.235 17.9489 11.647V7.16618C17.9489 6.80476 17.9367 6.46631 17.9126 6.14944H1.48725ZM12.3888 19.4282C12.4967 19.4282 12.6166 19.4282 12.7408 19.4242C13.5126 19.9908 14.4707 20.3199 15.4943 20.3199C16.6843 20.3199 17.7551 19.87 18.5798 19.1587L18.5883 19.1512C19.5493 18.2936 20.1762 17.0462 20.1762 15.638C20.1762 14.6155 19.8479 13.6584 19.2824 12.8871C19.2866 12.7612 19.2866 12.6397 19.2866 12.5304V7.16618C19.2866 4.87076 18.8316 3.08998 17.6415 1.89992C16.4515 0.70987 14.6707 0.254883 12.3753 0.254883H7.02458C4.72916 0.254883 2.94838 0.70987 1.75832 1.89992C0.568269 3.08998 0.113281 4.87076 0.113281 7.16618V12.5169C0.113281 14.8123 0.568269 16.5931 1.75832 17.7831C2.94838 18.9732 4.72916 19.4282 7.02458 19.4282H12.3888ZM15.4943 18.9822C14.7037 18.9822 13.9749 18.7093 13.411 18.2522C13.3999 18.2419 13.3884 18.2319 13.3765 18.2222C12.6272 17.6139 12.1523 16.6877 12.1523 15.6381C12.1523 14.5802 12.6352 13.6399 13.4047 13.0332L13.4101 13.0289C13.982 12.5684 14.709 12.2939 15.4965 12.2939C15.5351 12.2939 15.5735 12.2946 15.6118 12.2958C16.6129 12.3298 17.493 12.7968 18.0785 13.518L18.0834 13.524C18.5555 14.092 18.8385 14.833 18.8385 15.638C18.8385 16.6356 18.3971 17.5269 17.7018 18.1495C17.1003 18.6666 16.3357 18.9822 15.4943 18.9822ZM16.4144 14.3805C16.4144 14.0111 16.1149 13.7117 15.7456 13.7117C15.3762 13.7117 15.0767 14.0111 15.0767 14.3805V15.5089L14.1529 16.0632C13.8362 16.2532 13.7335 16.6641 13.9235 16.9808C14.1136 17.2976 14.5244 17.4003 14.8412 17.2102L16.0897 16.4611C16.2911 16.3403 16.4144 16.1226 16.4144 15.8876V14.3805Z" fill="#751EE4"/>
</svg>
