<svg width="305" height="289" viewBox="0 0 305 289" fill="none" xmlns="http://www.w3.org/2000/svg">
<g opacity="0.6">
<mask id="mask0_223_985" style="mask-type:alpha" maskUnits="userSpaceOnUse" x="0" y="0" width="305" height="289">
<path fill-rule="evenodd" clip-rule="evenodd" d="M152.199 144.592L152.172 144.559L303.329 120.54L208.342 0.965332L56.6719 24.4086L57.6782 25.6753L1.13281 167.598L95.0722 287.054L95.0886 287.013L246.606 264.621L303.388 120.555L152.202 144.583L152.199 144.592Z" fill="white"/>
<path d="M152.175 144.559L151.702 144.934L151.058 144.124L152.08 143.962L152.175 144.559ZM152.202 144.592L152.762 144.817L152.375 145.783L151.728 144.967L152.202 144.592ZM303.331 120.54L303.803 120.164L304.447 120.975L303.425 121.137L303.331 120.54ZM208.344 0.965226L208.253 0.368066L208.6 0.314453L208.818 0.589347L208.344 0.965226ZM56.6745 24.4085L56.2014 24.7844L55.5547 23.9702L56.5822 23.8115L56.6745 24.4085ZM57.6808 25.6752L58.1539 25.2995L58.3717 25.5736L58.2421 25.8989L57.6808 25.6752ZM1.13542 167.598L0.660516 167.971L0.445312 167.698L0.574101 167.374L1.13542 167.598ZM95.0749 287.054L95.6356 287.279L95.2462 288.249L94.6 287.426L95.0749 287.054ZM95.0912 287.013L94.5305 286.787L94.6596 286.465L95.0029 286.415L95.0912 287.013ZM246.609 264.621L247.17 264.843L247.043 265.168L246.697 265.218L246.609 264.621ZM303.39 120.555L303.295 119.959L304.341 119.793L303.952 120.777L303.39 120.555ZM152.205 144.583L151.645 144.358L151.772 144.039L152.111 143.986L152.205 144.583ZM152.648 144.182L152.674 144.215L151.728 144.967L151.702 144.934L152.648 144.182ZM303.425 121.137L152.27 145.156L152.08 143.962L303.237 119.943L303.425 121.137ZM208.818 0.589347L303.803 120.164L302.857 120.915L207.872 1.34096L208.818 0.589347ZM56.5822 23.8115L208.253 0.368066L208.437 1.56224L56.7668 25.0056L56.5822 23.8115ZM57.2077 26.0511L56.2014 24.7844L57.1476 24.0327L58.1539 25.2995L57.2077 26.0511ZM0.574101 167.374L57.1195 25.4517L58.2421 25.8989L1.69674 167.822L0.574101 167.374ZM94.6 287.426L0.660516 167.971L1.61032 167.226L95.5498 286.68L94.6 287.426ZM95.652 287.238L95.6356 287.279L94.5141 286.828L94.5305 286.787L95.652 287.238ZM95.0029 286.415L246.52 264.023L246.697 265.218L95.1795 287.61L95.0029 286.415ZM246.047 264.399L302.828 120.334L303.952 120.777L247.17 264.843L246.047 264.399ZM303.485 121.152L152.301 145.18L152.111 143.986L303.295 119.959L303.485 121.152ZM152.767 144.808L152.762 144.817L151.642 144.367L151.645 144.358L152.767 144.808Z" fill="white"/>
</mask>
<g mask="url(#mask0_223_985)">
<g filter="url(#filter0_f_223_985)">
<path d="M156.288 278.888C97.2378 270.303 55.94 218.143 64.0464 162.385C72.1527 106.627 126.593 68.3863 185.643 76.9713C244.693 85.5562 285.991 137.716 277.884 193.474C269.778 249.232 215.337 287.473 156.288 278.888Z" fill="#751EE4"/>
</g>
<g filter="url(#filter1_f_223_985)">
<path d="M87.2032 394.759C21.0103 385.135 -25.2845 326.674 -16.1992 264.182C-7.11387 201.691 53.9112 158.832 120.104 168.456C186.297 178.079 232.592 236.54 223.507 299.032C214.421 361.524 153.396 404.382 87.2032 394.759Z" fill="#6CB0FF"/>
</g>
<g filter="url(#filter2_f_223_985)">
<path d="M166.168 50.6416C160.327 90.8173 170.218 118.038 242.322 156.297C279.614 168.25 314.293 113.202 320.134 73.0258C325.975 32.85 296.243 -4.72983 253.726 -10.911C211.21 -17.0923 172.009 10.4657 166.168 50.6416Z" fill="white" fill-opacity="0.9"/>
</g>
<g filter="url(#filter3_f_223_985)">
<path d="M173.741 198.017C147.823 194.249 129.701 171.325 133.265 146.813C136.828 122.302 160.728 105.487 186.646 109.255C212.564 113.023 230.685 135.948 227.122 160.459C223.558 184.97 199.659 201.785 173.741 198.017Z" fill="#36BEFF"/>
</g>
</g>
<path d="M208.202 1.0144L56.5312 24.4578L151.981 144.615L303.188 120.589L208.202 1.0144Z" fill="url(#paint0_linear_223_985)" stroke="white" stroke-width="1.06091"/>
<path d="M246.465 264.67L94.9141 287.066L152.061 144.632L303.247 120.604L246.465 264.67Z" stroke="white" stroke-width="1.06091"/>
<path d="M0.996094 167.647L57.5606 25.6763L152.084 144.667L94.9355 287.102L0.996094 167.647Z" stroke="white" stroke-width="1.06091"/>
</g>
<defs>
<filter id="filter0_f_223_985" x="-128.812" y="-116.075" width="599.554" height="588.01" filterUnits="userSpaceOnUse" color-interpolation-filters="sRGB">
<feFlood flood-opacity="0" result="BackgroundImageFix"/>
<feBlend mode="normal" in="SourceGraphic" in2="BackgroundImageFix" result="shape"/>
<feGaussianBlur stdDeviation="95.9212" result="effect1_foregroundBlur_223_985"/>
</filter>
<filter id="filter1_f_223_985" x="-76.6952" y="107.748" width="360.698" height="347.718" filterUnits="userSpaceOnUse" color-interpolation-filters="sRGB">
<feFlood flood-opacity="0" result="BackgroundImageFix"/>
<feBlend mode="normal" in="SourceGraphic" in2="BackgroundImageFix" result="shape"/>
<feGaussianBlur stdDeviation="29.6789" result="effect1_foregroundBlur_223_985"/>
</filter>
<filter id="filter2_f_223_985" x="92.809" y="-83.7261" width="300.006" height="313.635" filterUnits="userSpaceOnUse" color-interpolation-filters="sRGB">
<feFlood flood-opacity="0" result="BackgroundImageFix"/>
<feBlend mode="normal" in="SourceGraphic" in2="BackgroundImageFix" result="shape"/>
<feGaussianBlur stdDeviation="35.9744" result="effect1_foregroundBlur_223_985"/>
</filter>
<filter id="filter3_f_223_985" x="70.4103" y="46.3195" width="219.566" height="214.633" filterUnits="userSpaceOnUse" color-interpolation-filters="sRGB">
<feFlood flood-opacity="0" result="BackgroundImageFix"/>
<feBlend mode="normal" in="SourceGraphic" in2="BackgroundImageFix" result="shape"/>
<feGaussianBlur stdDeviation="31.2038" result="effect1_foregroundBlur_223_985"/>
</filter>
<linearGradient id="paint0_linear_223_985" x1="157.562" y1="156.701" x2="210.218" y2="-25.3626" gradientUnits="userSpaceOnUse">
<stop stop-color="#CEDCF7" stop-opacity="0.71"/>
<stop offset="1" stop-color="white" stop-opacity="0"/>
</linearGradient>
</defs>
</svg>
