<svg width="16" height="20" viewBox="0 0 16 20" fill="none" xmlns="http://www.w3.org/2000/svg">
<path d="M0.144748 9.8C0.561414 8.35 1.40741 6.81267 2.68275 5.188C3.95808 3.56333 5.67875 1.834 7.84475 0C10.0114 1.83333 11.7324 3.56267 13.0077 5.188C14.2831 6.81333 15.1287 8.35067 15.5447 9.8H0.144748ZM15.6947 13.45C15.5447 14.2667 15.2821 15.0377 14.9067 15.763C14.5314 16.4883 14.0524 17.1423 13.4697 17.725C12.8864 18.3083 12.2321 18.7833 11.5067 19.15C10.7814 19.5167 10.0191 19.7667 9.21975 19.9L15.6947 13.45ZM11.6197 11.8H14.4697L6.36975 19.9C5.98641 19.8167 5.61541 19.721 5.25675 19.613C4.89808 19.505 4.55241 19.359 4.21975 19.175L11.6197 11.8ZM5.89475 11.8H8.74475L2.51975 18.025C2.26975 17.7917 2.03241 17.55 1.80775 17.3C1.58308 17.05 1.37875 16.7833 1.19475 16.5L5.89475 11.8ZM0.144748 11.8H2.99475L0.244748 14.55C0.111414 14.1 0.032081 13.6417 0.00674766 13.175C-0.0185857 12.7083 0.0274143 12.25 0.144748 11.8Z" fill="#751EE4"/>
</svg>
