<svg width="15" height="17" viewBox="0 0 15 17" fill="none" xmlns="http://www.w3.org/2000/svg">
<path d="M1.30078 0.552002C1.566 0.552002 1.82035 0.657359 2.00789 0.844895C2.19542 1.03243 2.30078 1.28679 2.30078 1.552V15.552C2.30078 15.8172 2.19542 16.0716 2.00789 16.2591C1.82035 16.4466 1.566 16.552 1.30078 16.552C1.03556 16.552 0.781211 16.4466 0.593674 16.2591C0.406138 16.0716 0.300781 15.8172 0.300781 15.552V1.552C0.300781 1.28679 0.406138 1.03243 0.593674 0.844895C0.781211 0.657359 1.03556 0.552002 1.30078 0.552002ZM13.3008 4.552C13.566 4.552 13.8204 4.65736 14.0079 4.8449C14.1954 5.03243 14.3008 5.28679 14.3008 5.552V15.552C14.3008 15.8172 14.1954 16.0716 14.0079 16.2591C13.8204 16.4466 13.566 16.552 13.3008 16.552C13.0356 16.552 12.7812 16.4466 12.5937 16.2591C12.4061 16.0716 12.3008 15.8172 12.3008 15.552V5.552C12.3008 5.28679 12.4061 5.03243 12.5937 4.8449C12.7812 4.65736 13.0356 4.552 13.3008 4.552ZM7.30078 8.552C7.566 8.552 7.82035 8.65736 8.00789 8.8449C8.19542 9.03243 8.30078 9.28679 8.30078 9.552V15.552C8.30078 15.8172 8.19542 16.0716 8.00789 16.2591C7.82035 16.4466 7.566 16.552 7.30078 16.552C7.03556 16.552 6.78121 16.4466 6.59367 16.2591C6.40614 16.0716 6.30078 15.8172 6.30078 15.552V9.552C6.30078 9.28679 6.40614 9.03243 6.59367 8.8449C6.78121 8.65736 7.03556 8.552 7.30078 8.552Z" fill="#751EE4"/>
</svg>
