<svg width="1440" height="905" viewBox="0 0 1440 905" fill="none" xmlns="http://www.w3.org/2000/svg">
<g opacity="0.4" clip-path="url(#clip0_251_8367)">
<mask id="mask0_251_8367" style="mask-type:luminance" maskUnits="userSpaceOnUse" x="0" y="0" width="1440" height="894">
<path d="M1440 0H0V894H1440V0Z" fill="white"/>
</mask>
<g mask="url(#mask0_251_8367)">
<g filter="url(#filter0_f_251_8367)">
<path d="M-575.204 982.976L1943.28 84.1214C1955.62 79.7254 1968.98 78.6677 1982 81.0515C1995.03 83.4354 2007.26 89.1767 2017.48 97.7027C2027.69 106.229 2035.53 117.239 2040.21 129.626C2044.89 142.012 2046.23 155.34 2044.12 168.273L1914.6 958.466C1910.32 984.375 1899.26 1008.57 1882.52 1028.63C1865.78 1048.69 1843.96 1063.9 1819.23 1072.75L176.568 1659.39C151.882 1668.25 125.157 1670.41 99.0892 1665.65C73.0219 1660.9 48.537 1649.39 28.1097 1632.31L-596.46 1111.11C-606.791 1102.57 -614.723 1091.51 -619.45 1079.04C-624.177 1066.57 -625.529 1053.15 -623.369 1040.13C-621.209 1027.11 -615.615 1014.96 -607.155 1004.92C-598.695 994.886 -587.671 987.313 -575.204 982.976Z" fill="url(#paint0_linear_251_8367)"/>
</g>
<path opacity="0.7" d="M-474.134 979.46L2063.05 134.826C2075.48 130.696 2088.86 129.925 2101.83 132.588C2114.8 135.25 2126.9 141.253 2136.94 149.996C2146.97 158.739 2154.57 169.915 2158.98 182.399C2163.39 194.883 2164.45 208.236 2162.06 221.121L2015.62 1008.35C2010.79 1034.17 1999.21 1058.12 1982.04 1077.81C1964.88 1097.51 1942.73 1112.25 1917.83 1120.57L262.959 1671.85C238.089 1680.17 211.323 1681.76 185.363 1676.44C159.404 1671.13 135.171 1659.1 115.115 1641.58L-498.132 1107.11C-508.278 1098.35 -515.971 1087.12 -520.429 1074.55C-524.888 1061.99 -525.951 1048.54 -523.513 1035.57C-521.075 1022.6 -515.221 1010.57 -506.548 1000.72C-497.874 990.863 -486.69 983.528 -474.134 979.46Z" fill="url(#paint1_linear_251_8367)"/>
<g opacity="0.8" filter="url(#filter1_f_251_8367)">
<path d="M981.996 746C1128.35 746 1247 697.647 1247 638C1247 578.353 1128.35 530 981.996 530C835.641 530 716.996 578.353 716.996 638C716.996 697.647 835.641 746 981.996 746Z" fill="#54A3FF" fill-opacity="0.4"/>
</g>
</g>
</g>
<path d="M376.825 801.15L16.0084 615.954C4.03007 609.806 -10.2109 618.504 -10.2109 631.968V886.149C-10.2109 896.091 -2.15206 904.149 7.78907 904.149H1418.21C1428.15 904.149 1436.21 896.091 1436.21 886.149V513.756C1436.21 501.334 1423.93 492.646 1412.22 496.784L522.934 810.995C474.95 827.949 422.1 824.388 376.825 801.15Z" fill="#F9F9FC"/>
<path d="M56.99 27.216C56.702 26.688 56.306 26.286 55.802 26.01C55.298 25.734 54.71 25.596 54.038 25.596C53.294 25.596 52.634 25.764 52.058 26.1C51.482 26.436 51.032 26.916 50.708 27.54C50.384 28.164 50.222 28.884 50.222 29.7C50.222 30.54 50.384 31.272 50.708 31.896C51.044 32.52 51.506 33 52.094 33.336C52.682 33.672 53.366 33.84 54.146 33.84C55.106 33.84 55.892 33.588 56.504 33.084C57.116 32.568 57.518 31.854 57.71 30.942H53.39V29.016H60.194V31.212C60.026 32.088 59.666 32.898 59.114 33.642C58.562 34.386 57.848 34.986 56.972 35.442C56.108 35.886 55.136 36.108 54.056 36.108C52.844 36.108 51.746 35.838 50.762 35.298C49.79 34.746 49.022 33.984 48.458 33.012C47.906 32.04 47.63 30.936 47.63 29.7C47.63 28.464 47.906 27.36 48.458 26.388C49.022 25.404 49.79 24.642 50.762 24.102C51.746 23.55 52.838 23.274 54.038 23.274C55.454 23.274 56.684 23.622 57.728 24.318C58.772 25.002 59.492 25.968 59.888 27.216H56.99ZM71.3284 30.798C71.3284 31.158 71.3044 31.482 71.2564 31.77H63.9664C64.0264 32.49 64.2784 33.054 64.7224 33.462C65.1664 33.87 65.7124 34.074 66.3604 34.074C67.2964 34.074 67.9624 33.672 68.3584 32.868H71.0764C70.7884 33.828 70.2364 34.62 69.4204 35.244C68.6044 35.856 67.6024 36.162 66.4144 36.162C65.4544 36.162 64.5904 35.952 63.8224 35.532C63.0664 35.1 62.4724 34.494 62.0404 33.714C61.6204 32.934 61.4104 32.034 61.4104 31.014C61.4104 29.982 61.6204 29.076 62.0404 28.296C62.4604 27.516 63.0484 26.916 63.8044 26.496C64.5604 26.076 65.4304 25.866 66.4144 25.866C67.3624 25.866 68.2084 26.07 68.9524 26.478C69.7084 26.886 70.2904 27.468 70.6984 28.224C71.1184 28.968 71.3284 29.826 71.3284 30.798ZM68.7184 30.078C68.7064 29.43 68.4724 28.914 68.0164 28.53C67.5604 28.134 67.0024 27.936 66.3424 27.936C65.7184 27.936 65.1904 28.128 64.7584 28.512C64.3384 28.884 64.0804 29.406 63.9844 30.078H68.7184ZM76.1018 28.098V32.922C76.1018 33.258 76.1798 33.504 76.3358 33.66C76.5038 33.804 76.7798 33.876 77.1638 33.876H78.3338V36H76.7498C74.6258 36 73.5638 34.968 73.5638 32.904V28.098H72.3758V26.028H73.5638V23.562H76.1018V26.028H78.3338V28.098H76.1018ZM88.7734 36.126C87.8974 36.126 87.1054 35.976 86.3974 35.676C85.7014 35.376 85.1494 34.944 84.7414 34.38C84.3334 33.816 84.1234 33.15 84.1114 32.382H86.8114C86.8474 32.898 87.0274 33.306 87.3514 33.606C87.6874 33.906 88.1434 34.056 88.7194 34.056C89.3074 34.056 89.7694 33.918 90.1054 33.642C90.4414 33.354 90.6094 32.982 90.6094 32.526C90.6094 32.154 90.4954 31.848 90.2674 31.608C90.0394 31.368 89.7514 31.182 89.4034 31.05C89.0674 30.906 88.5994 30.75 87.9994 30.582C87.1834 30.342 86.5174 30.108 86.0014 29.88C85.4974 29.64 85.0594 29.286 84.6874 28.818C84.3274 28.338 84.1474 27.702 84.1474 26.91C84.1474 26.166 84.3334 25.518 84.7054 24.966C85.0774 24.414 85.5994 23.994 86.2714 23.706C86.9434 23.406 87.7114 23.256 88.5754 23.256C89.8714 23.256 90.9214 23.574 91.7254 24.21C92.5414 24.834 92.9914 25.71 93.0754 26.838H90.3034C90.2794 26.406 90.0934 26.052 89.7454 25.776C89.4094 25.488 88.9594 25.344 88.3954 25.344C87.9034 25.344 87.5074 25.47 87.2074 25.722C86.9194 25.974 86.7754 26.34 86.7754 26.82C86.7754 27.156 86.8834 27.438 87.0994 27.666C87.3274 27.882 87.6034 28.062 87.9274 28.206C88.2634 28.338 88.7314 28.494 89.3314 28.674C90.1474 28.914 90.8134 29.154 91.3294 29.394C91.8454 29.634 92.2894 29.994 92.6614 30.474C93.0334 30.954 93.2194 31.584 93.2194 32.364C93.2194 33.036 93.0454 33.66 92.6974 34.236C92.3494 34.812 91.8394 35.274 91.1674 35.622C90.4954 35.958 89.6974 36.126 88.7734 36.126ZM98.3381 28.098V32.922C98.3381 33.258 98.4161 33.504 98.5721 33.66C98.7401 33.804 99.0161 33.876 99.4001 33.876H100.57V36H98.9861C96.8621 36 95.8001 34.968 95.8001 32.904V28.098H94.6121V26.028H95.8001V23.562H98.3381V26.028H100.57V28.098H98.3381ZM101.735 30.978C101.735 29.97 101.933 29.076 102.329 28.296C102.737 27.516 103.283 26.916 103.967 26.496C104.663 26.076 105.437 25.866 106.289 25.866C107.033 25.866 107.681 26.016 108.233 26.316C108.797 26.616 109.247 26.994 109.583 27.45V26.028H112.121V36H109.583V34.542C109.259 35.01 108.809 35.4 108.233 35.712C107.669 36.012 107.015 36.162 106.271 36.162C105.431 36.162 104.663 35.946 103.967 35.514C103.283 35.082 102.737 34.476 102.329 33.696C101.933 32.904 101.735 31.998 101.735 30.978ZM109.583 31.014C109.583 30.402 109.463 29.88 109.223 29.448C108.983 29.004 108.659 28.668 108.251 28.44C107.843 28.2 107.405 28.08 106.937 28.08C106.469 28.08 106.037 28.194 105.641 28.422C105.245 28.65 104.921 28.986 104.669 29.43C104.429 29.862 104.309 30.378 104.309 30.978C104.309 31.578 104.429 32.106 104.669 32.562C104.921 33.006 105.245 33.348 105.641 33.588C106.049 33.828 106.481 33.948 106.937 33.948C107.405 33.948 107.843 33.834 108.251 33.606C108.659 33.366 108.983 33.03 109.223 32.598C109.463 32.154 109.583 31.626 109.583 31.014ZM117.102 27.576C117.426 27.048 117.846 26.634 118.362 26.334C118.89 26.034 119.49 25.884 120.162 25.884V28.53H119.496C118.704 28.53 118.104 28.716 117.696 29.088C117.3 29.46 117.102 30.108 117.102 31.032V36H114.582V26.028H117.102V27.576ZM124.793 28.098V32.922C124.793 33.258 124.871 33.504 125.027 33.66C125.195 33.804 125.471 33.876 125.855 33.876H127.025V36H125.441C123.317 36 122.255 34.968 122.255 32.904V28.098H121.067V26.028H122.255V23.562H124.793V26.028H127.025V28.098H124.793ZM138.108 30.798C138.108 31.158 138.084 31.482 138.036 31.77H130.746C130.806 32.49 131.058 33.054 131.502 33.462C131.946 33.87 132.492 34.074 133.14 34.074C134.076 34.074 134.742 33.672 135.138 32.868H137.856C137.568 33.828 137.016 34.62 136.2 35.244C135.384 35.856 134.382 36.162 133.194 36.162C132.234 36.162 131.37 35.952 130.602 35.532C129.846 35.1 129.252 34.494 128.82 33.714C128.4 32.934 128.19 32.034 128.19 31.014C128.19 29.982 128.4 29.076 128.82 28.296C129.24 27.516 129.828 26.916 130.584 26.496C131.34 26.076 132.21 25.866 133.194 25.866C134.142 25.866 134.988 26.07 135.732 26.478C136.488 26.886 137.07 27.468 137.478 28.224C137.898 28.968 138.108 29.826 138.108 30.798ZM135.498 30.078C135.486 29.43 135.252 28.914 134.796 28.53C134.34 28.134 133.782 27.936 133.122 27.936C132.498 27.936 131.97 28.128 131.538 28.512C131.118 28.884 130.86 29.406 130.764 30.078H135.498ZM139.299 30.978C139.299 29.97 139.497 29.076 139.893 28.296C140.301 27.516 140.853 26.916 141.549 26.496C142.245 26.076 143.019 25.866 143.871 25.866C144.519 25.866 145.137 26.01 145.725 26.298C146.313 26.574 146.781 26.946 147.129 27.414V22.68H149.685V36H147.129V34.524C146.817 35.016 146.379 35.412 145.815 35.712C145.251 36.012 144.597 36.162 143.853 36.162C143.013 36.162 142.245 35.946 141.549 35.514C140.853 35.082 140.301 34.476 139.893 33.696C139.497 32.904 139.299 31.998 139.299 30.978ZM147.147 31.014C147.147 30.402 147.027 29.88 146.787 29.448C146.547 29.004 146.223 28.668 145.815 28.44C145.407 28.2 144.969 28.08 144.501 28.08C144.033 28.08 143.601 28.194 143.205 28.422C142.809 28.65 142.485 28.986 142.233 29.43C141.993 29.862 141.873 30.378 141.873 30.978C141.873 31.578 141.993 32.106 142.233 32.562C142.485 33.006 142.809 33.348 143.205 33.588C143.613 33.828 144.045 33.948 144.501 33.948C144.969 33.948 145.407 33.834 145.815 33.606C146.223 33.366 146.547 33.03 146.787 32.598C147.027 32.154 147.147 31.626 147.147 31.014Z" fill="white"/>
<path d="M1256 105H1261C1261.27 105 1261.52 105.105 1261.71 105.293C1261.89 105.48 1262 105.735 1262 106C1262 106.265 1261.89 106.52 1261.71 106.707C1261.52 106.895 1261.27 107 1261 107H1256C1255.73 107 1255.48 106.895 1255.29 106.707C1255.11 106.52 1255 106.265 1255 106C1255 105.735 1255.11 105.48 1255.29 105.293C1255.48 105.105 1255.73 105 1256 105ZM1263 113H1268C1268.27 113 1268.52 113.105 1268.71 113.293C1268.89 113.48 1269 113.735 1269 114C1269 114.265 1268.89 114.52 1268.71 114.707C1268.52 114.895 1268.27 115 1268 115H1263C1262.73 115 1262.48 114.895 1262.29 114.707C1262.11 114.52 1262 114.265 1262 114C1262 113.735 1262.11 113.48 1262.29 113.293C1262.48 113.105 1262.73 113 1263 113ZM1256 109H1268C1268.27 109 1268.52 109.105 1268.71 109.293C1268.89 109.48 1269 109.735 1269 110C1269 110.265 1268.89 110.52 1268.71 110.707C1268.52 110.895 1268.27 111 1268 111H1256C1255.73 111 1255.48 110.895 1255.29 110.707C1255.11 110.52 1255 110.265 1255 110C1255 109.735 1255.11 109.48 1255.29 109.293C1255.48 109.105 1255.73 109 1256 109Z" fill="white"/>
<path d="M1125 114.943C1125 115.141 1124.92 115.332 1124.78 115.473C1124.64 115.613 1124.45 115.693 1124.25 115.693C1124.05 115.693 1123.86 115.613 1123.72 115.473C1123.58 115.332 1123.5 115.141 1123.5 114.943V110.375C1123.5 106.233 1126.86 102.875 1131 102.875C1135.14 102.875 1138.5 106.233 1138.5 110.375V112.69C1138.5 112.888 1138.42 113.079 1138.28 113.22C1138.14 113.36 1137.95 113.44 1137.75 113.44C1137.55 113.44 1137.36 113.36 1137.22 113.22C1137.08 113.079 1137 112.888 1137 112.69V110.375C1137 108.784 1136.37 107.258 1135.24 106.132C1134.12 105.007 1132.59 104.375 1131 104.375C1129.41 104.375 1127.88 105.007 1126.76 106.132C1125.63 107.258 1125 108.784 1125 110.375V114.943ZM1125 110.375H1126.5C1126.9 110.375 1127.28 110.533 1127.56 110.814C1127.84 111.096 1128 111.477 1128 111.875V115.625C1128 116.023 1127.84 116.404 1127.56 116.686C1127.28 116.967 1126.9 117.125 1126.5 117.125H1125C1124.6 117.125 1124.22 116.967 1123.94 116.686C1123.66 116.404 1123.5 116.023 1123.5 115.625V111.875C1123.5 111.477 1123.66 111.096 1123.94 110.814C1124.22 110.533 1124.6 110.375 1125 110.375ZM1125 111.875V115.625H1126.5V111.875H1125ZM1135.5 110.375H1137C1137.4 110.375 1137.78 110.533 1138.06 110.814C1138.34 111.096 1138.5 111.477 1138.5 111.875V115.625C1138.5 116.023 1138.34 116.404 1138.06 116.686C1137.78 116.967 1137.4 117.125 1137 117.125H1135.5C1135.1 117.125 1134.72 116.967 1134.44 116.686C1134.16 116.404 1134 116.023 1134 115.625V111.875C1134 111.477 1134.16 111.096 1134.44 110.814C1134.72 110.533 1135.1 110.375 1135.5 110.375ZM1135.5 111.875V115.625H1137V111.875H1135.5Z" fill="white"/>
<defs>
<filter id="filter0_f_251_8367" x="-784.369" y="-80.1912" width="2989.46" height="1908.31" filterUnits="userSpaceOnUse" color-interpolation-filters="sRGB">
<feFlood flood-opacity="0" result="BackgroundImageFix"/>
<feBlend mode="normal" in="SourceGraphic" in2="BackgroundImageFix" result="shape"/>
<feGaussianBlur stdDeviation="80" result="effect1_foregroundBlur_251_8367"/>
</filter>
<filter id="filter1_f_251_8367" x="377.032" y="190.036" width="1209.93" height="895.928" filterUnits="userSpaceOnUse" color-interpolation-filters="sRGB">
<feFlood flood-opacity="0" result="BackgroundImageFix"/>
<feBlend mode="normal" in="SourceGraphic" in2="BackgroundImageFix" result="shape"/>
<feGaussianBlur stdDeviation="169.982" result="effect1_foregroundBlur_251_8367"/>
</filter>
<linearGradient id="paint0_linear_251_8367" x1="1141.61" y1="548.525" x2="278.503" y2="656.009" gradientUnits="userSpaceOnUse">
<stop stop-color="#EDE2FF"/>
<stop offset="0.410954" stop-color="#D87DFB"/>
<stop offset="0.954422" stop-color="#F13690"/>
</linearGradient>
<linearGradient id="paint1_linear_251_8367" x1="1251.61" y1="581.929" x2="1028.74" y2="1029.58" gradientUnits="userSpaceOnUse">
<stop stop-color="#73FCC2" stop-opacity="0"/>
<stop offset="0.695163" stop-color="#F13690"/>
</linearGradient>
<clipPath id="clip0_251_8367">
<rect width="1440" height="894" fill="white"/>
</clipPath>
</defs>
</svg>
